<svg xmlns="http://www.w3.org/2000/svg" viewBox="0 0 169.7 204.62"><defs><style>.a{fill:#47bcc9;}.b{fill:#68c9d3;}.c{fill:none;}.d{fill:#bbbdbf;}.e{fill:#d1d2d3;}.f{fill:#fdfdfe;fill-rule:evenodd;}</style></defs><title>marker_ambulance</title><path class="a" d="M447.61,332c0,48.55,76.45,108.74,76.45,108.74V255.55A76.45,76.45,0,0,0,447.61,332Z" transform="translate(-439.23 -247.67)"/><path class="b" d="M524.06,255.55V440.74S600.51,380.55,600.51,332A76.45,76.45,0,0,0,524.06,255.55Z" transform="translate(-439.23 -247.67)"/><path class="b" d="M490.17,400.42C466.25,374,453.61,350.3,453.61,332a70.53,70.53,0,0,1,70.45-70.45v-6A76.45,76.45,0,0,0,447.61,332c0,48.55,76.45,108.74,76.45,108.74V433A355.24,355.24,0,0,1,490.17,400.42Z" transform="translate(-439.23 -247.67)"/><path class="a" d="M524.06,255.55h0v6h0A70.53,70.53,0,0,1,594.51,332c0,18.31-12.64,42-36.56,68.42A355.25,355.25,0,0,1,524.06,433h0v7.76h0S600.51,380.55,600.51,332A76.45,76.45,0,0,0,524.06,255.55Z" transform="translate(-439.23 -247.67)"/><path class="c" d="M524.07,441.25c9.73-9,18.82-18.13,27.1-27.1,31-33.61,49.51-64.88,49.51-83.64,0-41.23-34.36-74.78-76.6-74.78h-0.23V441Z" transform="translate(-439.23 -247.67)"/><path class="c" d="M447.47,330.5c0,18.93,18.78,50.5,50.25,84.43,8,8.68,16.82,17.43,26.13,26.1V255.73C481.71,255.85,447.47,289.35,447.47,330.5Z" transform="translate(-439.23 -247.67)"/><path class="d" d="M524.08,247.67h-0.23v8h0.23c42.24,0,76.6,33.55,76.6,74.78,0,18.77-18.51,50-49.51,83.64-8.28,9-17.37,18.06-27.1,27.1l-0.22-.21v11.05l0.22,0.2c9.89-8.95,21.62-20.18,33.23-32.76,32.81-35.57,51.63-68,51.63-89C608.92,284.83,570.86,247.67,524.08,247.67Z" transform="translate(-439.23 -247.67)"/><path class="e" d="M497.72,414.94c-31.46-33.94-50.25-65.5-50.25-84.43,0-41.16,34.24-74.65,76.37-74.77v-8c-46.68.12-84.62,37.23-84.62,82.82,0,21.19,19.09,53.93,52.38,89.83,11.33,12.22,22.64,23.06,32.24,31.75V441C514.53,432.37,505.77,423.62,497.72,414.94Z" transform="translate(-439.23 -247.67)"/><path class="f" d="M489.93,305.64L479.52,323c-1.92,3.15-5.68,3.76-9,4.55-4.85,1.13-7.34,5.88-7.34,10.63v2.93a2.84,2.84,0,0,0-2.83,2.83v6.27a2.84,2.84,0,0,0,2.83,2.83h7.42a14.66,14.66,0,0,1,26.34-8.85h54.65A14.67,14.67,0,0,1,577.93,353h7.42a2.84,2.84,0,0,0,2.83-2.83v-6.27a2.84,2.84,0,0,0-2.83-2.83v-36.5a6.49,6.49,0,0,0-6.47-6.47H503.93c-6,0-10.79,2.16-14,7.5h0ZM528.19,285a2,2,0,0,1-.75,2.77l-3.5,2a2,2,0,0,1-2.77-.75,2,2,0,0,1,.75-2.75l3.5-2a2,2,0,0,1,2.77.73h0Zm-30.58,0a2,2,0,0,1,2.75-.73l3.52,2a2,2,0,0,1-2,3.5l-3.52-2a2,2,0,0,1-.73-2.77h0Zm15.28-8.81a2,2,0,0,1,2,2v4a2,2,0,1,1-4,0v-4a2,2,0,0,1,2-2h0Zm-14,71.51a15,15,0,0,1,1,5.32h48.73a14.53,14.53,0,0,1,1-5.32H498.9ZM511,288.15a2.25,2.25,0,0,0-2.47,2.06l-0.87,5.09h10.35l-0.85-5.09a2.28,2.28,0,0,0-2.49-2.06H511Zm52.23,53.77A11.12,11.12,0,1,1,552.16,353a11.12,11.12,0,0,1,11.12-11.12h0Zm0,15.56a4.45,4.45,0,1,0-4.45-4.45,4.46,4.46,0,0,0,4.45,4.45h0Zm-78-15.56A11.12,11.12,0,1,1,474.12,353a11.12,11.12,0,0,1,11.12-11.12h0Zm0,15.56a4.45,4.45,0,1,0-4.45-4.45,4.46,4.46,0,0,0,4.45,4.45h0Zm63.89-53.28a13.47,13.47,0,1,1-13.48,13.48,13.47,13.47,0,0,1,13.48-13.48h0Zm-3,4.1h6.06v6.35h6.33v6.06h-6.33V327H546.1v-6.33h-6.35v-6.06h6.35v-6.35Zm-33.21-4.1h-9c-3.9,0-6.73,1.13-8.81,4.57L486.59,323h26.3V304.2Z" transform="translate(-439.23 -247.67)"/></svg>