<svg xmlns="http://www.w3.org/2000/svg" viewBox="0 0 169.7 204.62"><defs><style>.a{fill:#34969b;}.b{fill:#59aaaa;}.c{fill:none;}.d{fill:#bbbdbf;}.e{fill:#d1d2d3;}.f{fill:#fdfdfe;fill-rule:evenodd;}</style></defs><title>marker_ambualance_sel</title><path class="a" d="M630.13,331.38c0,48.55,76.45,108.74,76.45,108.74V254.93A76.45,76.45,0,0,0,630.13,331.38Z" transform="translate(-621.74 -247.05)"/><path class="b" d="M706.58,254.93V440.12S783,379.92,783,331.38A76.45,76.45,0,0,0,706.58,254.93Z" transform="translate(-621.74 -247.05)"/><path class="b" d="M672.69,399.8c-23.92-26.46-36.56-50.12-36.56-68.42a70.53,70.53,0,0,1,70.45-70.45v-6a76.45,76.45,0,0,0-76.45,76.45c0,48.55,76.45,108.74,76.45,108.74v-7.76A355.24,355.24,0,0,1,672.69,399.8Z" transform="translate(-621.74 -247.05)"/><path class="a" d="M706.58,254.93h0v6h0A70.53,70.53,0,0,1,777,331.38c0,18.31-12.64,42-36.56,68.42a355.25,355.25,0,0,1-33.89,32.56h0v7.76h0S783,379.92,783,331.38A76.45,76.45,0,0,0,706.58,254.93Z" transform="translate(-621.74 -247.05)"/><path class="c" d="M706.58,440.63c9.73-9,18.82-18.13,27.1-27.1,31-33.61,49.51-64.88,49.51-83.64,0-41.23-34.36-74.78-76.6-74.78h-0.23V440.41Z" transform="translate(-621.74 -247.05)"/><path class="c" d="M630,329.88c0,18.93,18.78,50.5,50.25,84.43,8,8.68,16.82,17.43,26.13,26.1V255.11C664.23,255.23,630,288.72,630,329.88Z" transform="translate(-621.74 -247.05)"/><path class="d" d="M706.59,247.05h-0.23v8h0.23c42.24,0,76.6,33.55,76.6,74.78,0,18.77-18.51,50-49.51,83.64-8.28,9-17.37,18.06-27.1,27.1l-0.22-.21v11.05l0.22,0.2c9.89-8.95,21.62-20.18,33.23-32.76,32.81-35.57,51.63-68,51.63-89C791.44,284.21,753.38,247.05,706.59,247.05Z" transform="translate(-621.74 -247.05)"/><path class="e" d="M680.23,414.31C648.77,380.38,630,348.82,630,329.88c0-41.16,34.24-74.65,76.37-74.77v-8c-46.68.12-84.62,37.23-84.62,82.82,0,21.19,19.09,53.93,52.38,89.83,11.33,12.22,22.64,23.06,32.24,31.75V440.41C697,431.75,688.28,423,680.23,414.31Z" transform="translate(-621.74 -247.05)"/><path class="f" d="M673.07,306.13L662.66,323.5c-1.92,3.15-5.68,3.76-9,4.55-4.85,1.13-7.34,5.88-7.34,10.63v2.93a2.84,2.84,0,0,0-2.83,2.83v6.27a2.84,2.84,0,0,0,2.83,2.83h7.42a14.66,14.66,0,0,1,26.34-8.85h54.65a14.67,14.67,0,0,1,26.36,8.85h7.42a2.84,2.84,0,0,0,2.83-2.83v-6.27a2.84,2.84,0,0,0-2.83-2.83V305.1a6.49,6.49,0,0,0-6.47-6.47H687.08c-6,0-10.79,2.16-14,7.5h0Zm38.26-20.62a2,2,0,0,1-.75,2.77l-3.5,2a2,2,0,0,1-2.77-.75,2,2,0,0,1,.75-2.75l3.5-2a2,2,0,0,1,2.77.73h0Zm-30.58,0a2,2,0,0,1,2.75-.73l3.52,2a2,2,0,0,1-2,3.5l-3.52-2a2,2,0,0,1-.73-2.77h0ZM696,276.7a2,2,0,0,1,2,2v4a2,2,0,1,1-4,0v-4a2,2,0,0,1,2-2h0Zm-14,71.51a15,15,0,0,1,1,5.32h48.73a14.53,14.53,0,0,1,1-5.32H682Zm12.15-59.57a2.25,2.25,0,0,0-2.47,2.06l-0.87,5.09h10.35l-0.85-5.09a2.28,2.28,0,0,0-2.49-2.06h-3.68Zm52.23,53.77a11.12,11.12,0,1,1-11.12,11.12,11.12,11.12,0,0,1,11.12-11.12h0Zm0,15.56a4.45,4.45,0,1,0-4.45-4.45,4.46,4.46,0,0,0,4.45,4.45h0Zm-78-15.56a11.12,11.12,0,1,1-11.12,11.12,11.12,11.12,0,0,1,11.12-11.12h0Zm0,15.56a4.45,4.45,0,1,0-4.45-4.45,4.46,4.46,0,0,0,4.45,4.45h0Zm63.89-53.28a13.47,13.47,0,1,1-13.48,13.48,13.47,13.47,0,0,1,13.48-13.48h0Zm-3,4.1h6.06v6.35h6.33v6.06H735.3v6.33h-6.06v-6.33h-6.35v-6.06h6.35V308.8ZM696,304.7h-9c-3.9,0-6.73,1.13-8.81,4.57l-8.53,14.23H696V304.7Z" transform="translate(-621.74 -247.05)"/></svg>