<svg xmlns="http://www.w3.org/2000/svg" viewBox="0 0 169.7 204.62"><defs><style>.a{fill:#2c783b;}.b{fill:#53894c;}.c{fill:none;}.d{fill:#bbbdbf;}.e{fill:#d1d2d3;}.f{fill:#fff;}</style></defs><title>marker_centre_consultation_sel</title><path class="a" d="M620.35,551.18c0,48.55,76.45,108.74,76.45,108.74V474.74A76.45,76.45,0,0,0,620.35,551.18Z" transform="translate(-611.97 -466.86)"/><path class="b" d="M696.8,474.74V659.92s76.45-60.19,76.45-108.74A76.45,76.45,0,0,0,696.8,474.74Z" transform="translate(-611.97 -466.86)"/><path class="b" d="M662.91,619.61c-23.92-26.46-36.56-50.12-36.56-68.42a70.53,70.53,0,0,1,70.45-70.45v-6a76.45,76.45,0,0,0-76.45,76.45c0,48.55,76.45,108.74,76.45,108.74v-7.76A355.24,355.24,0,0,1,662.91,619.61Z" transform="translate(-611.97 -466.86)"/><path class="a" d="M696.8,474.74h0v6h0a70.53,70.53,0,0,1,70.45,70.45c0,18.31-12.64,42-36.56,68.42a355.25,355.25,0,0,1-33.89,32.56h0v7.76h0s76.45-60.19,76.45-108.74A76.45,76.45,0,0,0,696.8,474.74Z" transform="translate(-611.97 -466.86)"/><path class="c" d="M696.81,660.43c9.73-9,18.82-18.13,27.1-27.1,31-33.61,49.51-64.88,49.51-83.64,0-41.23-34.36-74.78-76.6-74.78h-0.23V660.22Z" transform="translate(-611.97 -466.86)"/><path class="c" d="M620.21,549.69c0,18.93,18.78,50.5,50.25,84.43,8,8.68,16.82,17.43,26.13,26.1V474.92C654.45,475,620.21,508.53,620.21,549.69Z" transform="translate(-611.97 -466.86)"/><path class="d" d="M696.82,466.86h-0.23v8h0.23c42.24,0,76.6,33.55,76.6,74.78,0,18.77-18.51,50-49.51,83.64-8.28,9-17.37,18.06-27.1,27.1l-0.22-.21v11.05l0.22,0.2c9.89-8.95,21.62-20.18,33.23-32.76,32.81-35.57,51.63-68,51.63-89C781.66,504,743.6,466.86,696.82,466.86Z" transform="translate(-611.97 -466.86)"/><path class="e" d="M670.46,634.12c-31.46-33.94-50.25-65.5-50.25-84.43,0-41.16,34.24-74.65,76.37-74.77v-8C649.91,467,612,504.09,612,549.69c0,21.19,19.09,53.93,52.38,89.83,11.33,12.22,22.64,23.06,32.24,31.75V660.22C687.27,651.56,678.51,642.8,670.46,634.12Z" transform="translate(-611.97 -466.86)"/><path class="f" d="M655.88,595.2a2.33,2.33,0,0,0,2.35,2.51l28.31,0,0-23.2s-0.4-3.82,3.31-3.82h11.75c4.39,0,4.12,3.82,4.12,3.82l0,23.12h27.71a2.9,2.9,0,0,0,3-3.13V551.71l-38.51-34.25-0.2,14.1h3V544l12.79,0.19v6.3l-12.6-.19-0.19,12.6-6.3.19-0.19-12.6-12-.19-0.19-5.93h12.23l0.37-12.79h3.15l0.2-14.1-42,34.25V595.2Z" transform="translate(-611.97 -466.86)"/><path class="f" d="M640.61,548.48s3.52,6.49,11.2,0l45.88-38.82,43,38.57c8.89,6.41,12.22,0,12.22,0l-55.24-50Z" transform="translate(-611.97 -466.86)"/><polygon class="f" points="127.69 42.71 116.63 42.71 116.67 56.13 127.69 65.48 127.69 42.71"/></svg>