<svg xmlns="http://www.w3.org/2000/svg" viewBox="0 0 169.7 204.62"><defs><style>.a{fill:#3ab14a;}.b{fill:#64bd5e;}.c{fill:none;}.d{fill:#bbbdbf;}.e{fill:#d1d2d3;}.f{fill:#fff;}</style></defs><title>marker_centre_consultation</title><path class="a" d="M442.48,550.31c0,48.55,76.45,108.74,76.45,108.74V473.86A76.45,76.45,0,0,0,442.48,550.31Z" transform="translate(-434.1 -465.99)"/><path class="b" d="M518.93,473.86V659.05s76.45-60.19,76.45-108.74A76.45,76.45,0,0,0,518.93,473.86Z" transform="translate(-434.1 -465.99)"/><path class="b" d="M485,618.73c-23.92-26.46-36.56-50.12-36.56-68.42a70.53,70.53,0,0,1,70.45-70.45v-6a76.45,76.45,0,0,0-76.45,76.45c0,48.55,76.45,108.74,76.45,108.74v-7.76A355.24,355.24,0,0,1,485,618.73Z" transform="translate(-434.1 -465.99)"/><path class="a" d="M518.93,473.86h0v6h0a70.53,70.53,0,0,1,70.45,70.45c0,18.31-12.64,42-36.56,68.42a355.25,355.25,0,0,1-33.89,32.56h0v7.76h0s76.45-60.19,76.45-108.74A76.45,76.45,0,0,0,518.93,473.86Z" transform="translate(-434.1 -465.99)"/><path class="c" d="M518.94,659.56c9.73-9,18.82-18.13,27.1-27.1,31-33.61,49.51-64.88,49.51-83.64,0-41.23-34.36-74.78-76.6-74.78h-0.23V659.35Z" transform="translate(-434.1 -465.99)"/><path class="c" d="M442.34,548.82c0,18.93,18.78,50.5,50.25,84.43,8,8.68,16.82,17.43,26.13,26.1V474C476.58,474.17,442.34,507.66,442.34,548.82Z" transform="translate(-434.1 -465.99)"/><path class="d" d="M518.95,466h-0.23v8h0.23c42.24,0,76.6,33.55,76.6,74.78,0,18.77-18.51,50-49.51,83.64-8.28,9-17.37,18.06-27.1,27.1l-0.22-.21V670.4l0.22,0.2c9.89-8.95,21.62-20.18,33.23-32.76,32.81-35.57,51.63-68,51.63-89C603.79,503.14,565.73,466,518.95,466Z" transform="translate(-434.1 -465.99)"/><path class="e" d="M492.59,633.25c-31.46-33.94-50.25-65.5-50.25-84.43,0-41.16,34.24-74.65,76.37-74.77v-8c-46.68.12-84.62,37.23-84.62,82.82,0,21.19,19.09,53.93,52.38,89.83,11.33,12.22,22.64,23.06,32.24,31.75V659.35C509.4,650.68,500.64,641.93,492.59,633.25Z" transform="translate(-434.1 -465.99)"/><path class="f" d="M477.83,597.34a2.33,2.33,0,0,0,2.35,2.51l28.31,0,0-23.2s-0.4-3.82,3.31-3.82h11.75c4.39,0,4.12,3.82,4.12,3.82l0,23.12h27.71a2.9,2.9,0,0,0,3-3.13V553.85l-38.51-34.25-0.2,14.1h3v12.42l12.79,0.19v6.3l-12.6-.19L522.61,565l-6.3.19-0.19-12.6-12-.19-0.19-5.93h12.23l0.37-12.79h3.15l0.2-14.1-42,34.25v43.49Z" transform="translate(-434.1 -465.99)"/><path class="f" d="M462.56,550.61s3.52,6.49,11.2,0l45.88-38.82,43,38.57c8.89,6.41,12.22,0,12.22,0l-55.24-50Z" transform="translate(-434.1 -465.99)"/><polygon class="f" points="127.52 45.72 116.45 45.72 116.5 59.14 127.52 68.49 127.52 45.72"/></svg>