<svg xmlns="http://www.w3.org/2000/svg" viewBox="0 0 169.7 204.62"><defs><style>.a{fill:#f26822;}.b{fill:#ec7f4f;}.c{fill:none;}.d{fill:#bbbdbf;}.e{fill:#d1d2d3;}.f{fill:#fff;}</style></defs><title>marker_dap</title><path class="a" d="M83.6,331.65C83.6,380.2,160,440.39,160,440.39V255.2A76.45,76.45,0,0,0,83.6,331.65Z" transform="translate(-75.21 -247.33)"/><path class="b" d="M160,255.2V440.39S236.5,380.2,236.5,331.65A76.45,76.45,0,0,0,160,255.2Z" transform="translate(-75.21 -247.33)"/><path class="b" d="M126.16,400.07C102.24,373.62,89.6,350,89.6,331.65A70.53,70.53,0,0,1,160,261.2v-6A76.45,76.45,0,0,0,83.6,331.65C83.6,380.2,160,440.39,160,440.39v-7.76A355.24,355.24,0,0,1,126.16,400.07Z" transform="translate(-75.21 -247.33)"/><path class="a" d="M160,255.2h0v6h0a70.53,70.53,0,0,1,70.45,70.45c0,18.31-12.64,42-36.56,68.42A355.25,355.25,0,0,1,160,432.63h0v7.76h0S236.5,380.2,236.5,331.65A76.45,76.45,0,0,0,160,255.2Z" transform="translate(-75.21 -247.33)"/><path class="c" d="M160.05,440.9c9.73-9,18.82-18.13,27.1-27.1,31-33.61,49.51-64.88,49.51-83.64,0-41.23-34.36-74.78-76.6-74.78h-0.23V440.69Z" transform="translate(-75.21 -247.33)"/><path class="c" d="M83.46,330.16c0,18.93,18.78,50.5,50.25,84.43,8,8.68,16.82,17.43,26.13,26.1V255.38C117.7,255.5,83.46,289,83.46,330.16Z" transform="translate(-75.21 -247.33)"/><path class="d" d="M160.06,247.33h-0.23v8h0.23c42.24,0,76.6,33.55,76.6,74.78,0,18.77-18.51,50-49.51,83.64-8.28,9-17.37,18.06-27.1,27.1l-0.22-.21v11.05l0.22,0.2c9.89-8.95,21.62-20.18,33.23-32.76,32.81-35.57,51.63-68,51.63-89C244.91,284.48,206.85,247.33,160.06,247.33Z" transform="translate(-75.21 -247.33)"/><path class="e" d="M133.71,414.59c-31.46-33.94-50.25-65.5-50.25-84.43,0-41.16,34.24-74.65,76.37-74.77v-8c-46.68.12-84.62,37.23-84.62,82.82,0,21.19,19.09,53.93,52.38,89.83,11.33,12.22,22.64,23.06,32.24,31.75V440.69C150.52,432,141.75,423.27,133.71,414.59Z" transform="translate(-75.21 -247.33)"/><path class="f" d="M212.25,303.35c-7.67,1.15-18.68.37-26.94-4l1.55-2.73a3.59,3.59,0,1,0-6.23-3.55l-1.39,2.45L173,292a2.82,2.82,0,0,0-3.84,1l-7.1,12.4a2.82,2.82,0,0,0,1,3.84l6.25,3.58-9.78,17.2-9.78-17.2,6.25-3.58a2.82,2.82,0,0,0,1-3.84L150,293a2.82,2.82,0,0,0-3.84-1l-6.2,3.55-1.39-2.45a3.59,3.59,0,1,0-6.23,3.55l1.55,2.73c-8.25,4.34-19.27,5.12-26.94,4,0,0-.9,7.79,5.7,19.31s13.77,14.69,13.77,14.69c2.94-7.3,8.92-16.34,17-21.2l12,21.17-24.11,42.4a3.59,3.59,0,1,0,6.23,3.54l22-38.69,22,38.69a3.59,3.59,0,1,0,6.23-3.54l-24.11-42.4,12-21.17c8.09,4.87,14.07,13.9,17,21.2,0,0,7.17-3.17,13.77-14.69S212.25,303.35,212.25,303.35Z" transform="translate(-75.21 -247.33)"/></svg>