<svg xmlns="http://www.w3.org/2000/svg" viewBox="0 0 169.7 204.62"><defs><style>.a{fill:#bc4f27;}.b{fill:#c76347;}.c{fill:none;}.d{fill:#bbbdbf;}.e{fill:#d1d2d3;}.f{fill:#fff;}</style></defs><title>marker_dap_sel</title><path class="a" d="M258.73,335.05c0,48.55,76.45,108.74,76.45,108.74V258.6A76.45,76.45,0,0,0,258.73,335.05Z" transform="translate(-250.34 -250.73)"/><path class="b" d="M335.17,258.6V443.79s76.45-60.19,76.45-108.74A76.45,76.45,0,0,0,335.17,258.6Z" transform="translate(-250.34 -250.73)"/><path class="b" d="M301.28,403.48c-23.92-26.46-36.56-50.12-36.56-68.42a70.53,70.53,0,0,1,70.45-70.45v-6a76.45,76.45,0,0,0-76.45,76.45c0,48.55,76.45,108.74,76.45,108.74V436A355.24,355.24,0,0,1,301.28,403.48Z" transform="translate(-250.34 -250.73)"/><path class="a" d="M335.17,258.6h0v6h0a70.53,70.53,0,0,1,70.45,70.45c0,18.31-12.64,42-36.56,68.42A355.25,355.25,0,0,1,335.17,436h0v7.76h0s76.45-60.19,76.45-108.74A76.45,76.45,0,0,0,335.17,258.6Z" transform="translate(-250.34 -250.73)"/><path class="c" d="M335.18,444.3c9.73-9,18.82-18.13,27.1-27.1,31-33.61,49.51-64.88,49.51-83.64,0-41.23-34.36-74.78-76.6-74.78H335V444.09Z" transform="translate(-250.34 -250.73)"/><path class="c" d="M258.59,333.56c0,18.93,18.78,50.5,50.25,84.43,8,8.68,16.82,17.43,26.13,26.1V258.78C292.83,258.91,258.59,292.4,258.59,333.56Z" transform="translate(-250.34 -250.73)"/><path class="d" d="M335.19,250.73H335v8h0.23c42.24,0,76.6,33.55,76.6,74.78,0,18.77-18.51,50-49.51,83.64-8.28,9-17.37,18.06-27.1,27.1l-0.22-.21v11.05l0.22,0.2c9.89-8.95,21.62-20.18,33.23-32.76,32.81-35.57,51.63-68,51.63-89C420,287.89,382,250.73,335.19,250.73Z" transform="translate(-250.34 -250.73)"/><path class="e" d="M308.83,418c-31.46-33.94-50.25-65.5-50.25-84.43,0-41.16,34.24-74.65,76.37-74.77v-8c-46.68.12-84.62,37.23-84.62,82.82,0,21.19,19.09,53.93,52.38,89.83C314,435.61,325.36,446.45,335,455.14V444.09C325.65,435.43,316.88,426.67,308.83,418Z" transform="translate(-250.34 -250.73)"/><path class="f" d="M387.74,306.13c-7.67,1.15-18.68.37-26.94-4l1.55-2.73a3.59,3.59,0,1,0-6.23-3.55l-1.39,2.45-6.2-3.55a2.82,2.82,0,0,0-3.84,1l-7.1,12.4a2.82,2.82,0,0,0,1,3.84l6.25,3.58-9.78,17.2-9.78-17.2,6.25-3.58a2.82,2.82,0,0,0,1-3.84l-7.1-12.4a2.82,2.82,0,0,0-3.84-1l-6.2,3.55-1.39-2.45a3.59,3.59,0,1,0-6.23,3.55l1.55,2.73c-8.25,4.34-19.27,5.12-26.94,4,0,0-.9,7.79,5.7,19.31s13.77,14.69,13.77,14.69c2.94-7.3,8.92-16.34,17-21.2l12,21.17-24.11,42.4a3.59,3.59,0,1,0,6.23,3.54l22-38.69,22,38.69a3.59,3.59,0,1,0,6.23-3.54l-24.11-42.4,12-21.17c8.09,4.87,14.07,13.9,17,21.2,0,0,7.17-3.17,13.77-14.69S387.74,306.13,387.74,306.13Z" transform="translate(-250.34 -250.73)"/></svg>