<svg xmlns="http://www.w3.org/2000/svg" viewBox="0 0 169.7 204.62"><defs><style>.a{isolation:isolate;}.b,.d{fill:#ee1f32;}.c{fill:#ef4658;}.d{opacity:0.4;mix-blend-mode:multiply;}.e{fill:none;}.f{fill:#bbbdbf;}.g{fill:#d1d2d3;}.h{fill:#feffff;}</style></defs><title>marker_dps_unsel</title><g class="a"><path class="b" d="M80.64,115.53c0,48.55,76.45,108.74,76.45,108.74V39.09A76.45,76.45,0,0,0,80.64,115.53Z" transform="translate(-72.26 -31.21)"/><path class="c" d="M157.09,39.09V224.28s76.45-60.19,76.45-108.74A76.45,76.45,0,0,0,157.09,39.09Z" transform="translate(-72.26 -31.21)"/><path class="c" d="M123.2,184c-23.92-26.46-36.56-50.12-36.56-68.42a70.53,70.53,0,0,1,70.45-70.45v-6a76.45,76.45,0,0,0-76.45,76.45c0,48.55,76.45,108.74,76.45,108.74v-7.76A355.24,355.24,0,0,1,123.2,184Z" transform="translate(-72.26 -31.21)"/><path class="d" d="M157.09,39.09h0v6h0a70.53,70.53,0,0,1,70.45,70.45c0,18.31-12.64,42-36.56,68.42a355.25,355.25,0,0,1-33.89,32.56h0v7.76h0s76.45-60.19,76.45-108.74A76.45,76.45,0,0,0,157.09,39.09Z" transform="translate(-72.26 -31.21)"/><path class="e" d="M157.09,224.78c9.73-9,18.82-18.13,27.1-27.1,31-33.61,49.51-64.88,49.51-83.64,0-41.23-34.36-74.78-76.6-74.78h-0.23V224.57Z" transform="translate(-72.26 -31.21)"/><path class="e" d="M80.5,114c0,18.93,18.78,50.5,50.25,84.43,8,8.68,16.82,17.43,26.13,26.1V39.27C114.74,39.39,80.5,72.88,80.5,114Z" transform="translate(-72.26 -31.21)"/><path class="f" d="M157.1,31.21h-0.23v8h0.23c42.24,0,76.6,33.55,76.6,74.78,0,18.77-18.51,50-49.51,83.64-8.28,9-17.37,18.06-27.1,27.1l-0.22-.21v11.05l0.22,0.2c9.89-8.95,21.62-20.18,33.23-32.76,32.81-35.57,51.63-68,51.63-89C242,68.37,203.89,31.21,157.1,31.21Z" transform="translate(-72.26 -31.21)"/><path class="g" d="M130.75,198.47C99.28,164.54,80.5,133,80.5,114c0-41.16,34.24-74.65,76.37-74.77v-8c-46.68.12-84.62,37.23-84.62,82.82,0,21.19,19.09,53.93,52.38,89.83,11.33,12.22,22.64,23.06,32.24,31.75V224.57C147.56,215.91,138.79,207.15,130.75,198.47Z" transform="translate(-72.26 -31.21)"/><path class="h" d="M157.06,85.17c-10.5,0-18.5,1.78-23.47,3.86a23.47,23.47,0,1,0,46.95,0C175.56,86.95,167.56,85.17,157.06,85.17Z" transform="translate(-72.26 -31.21)"/><path class="h" d="M186.25,82a27.66,27.66,0,0,0-5.72-2.77A23.47,23.47,0,0,0,168.26,59.5l-2.41,12.75a1.46,1.46,0,0,1-1.47,1.19h-0.28a1.48,1.48,0,0,1-1.2-1.69,0.07,0.07,0,0,0,0-.05L165.71,57a4.41,4.41,0,0,0-4.25-3.39h-8.8A4.4,4.4,0,0,0,148.37,57l2.79,14.67A1.47,1.47,0,0,1,150,73.44h-0.28a1.46,1.46,0,0,1-1.47-1.19L145.85,59.5a23.47,23.47,0,0,0-12.26,19.69A27.71,27.71,0,0,0,127.82,82c-3.78,2.1-6,4.59-6,7.34,0,3.23,3.49,6.18,8.71,8.45a0.14,0.14,0,0,0,.19-0.07,0.1,0.1,0,0,0,0-.11,26.68,26.68,0,0,1-1.47-7.5,26,26,0,0,1,.34-4c6.07-3.18,16.14-5.27,27.38-5.27s21.3,2.08,27.38,5.27a26,26,0,0,1,.34,4,26.68,26.68,0,0,1-1.47,7.5,0.14,0.14,0,0,0,.09.18,0.16,0.16,0,0,0,.12,0c5.35-2.32,8.85-5.27,8.85-8.49C192.27,86.55,190,84.06,186.25,82Z" transform="translate(-72.26 -31.21)"/><path class="h" d="M145.32,126.29c-3.3-1.32-5.87-3.15-6.9-5.37l-0.73.19a75.5,75.5,0,0,0-22.89,11.15,12.25,12.25,0,0,0-4.69,9.39v23.47h35.21V126.29Zm-17.6,31.5h-13.2v-4.4h13.2v4.4Z" transform="translate(-72.26 -31.21)"/><path class="h" d="M148.25,165.13h17.6V127.26a33.2,33.2,0,0,1-17.6,0v37.86Z" transform="translate(-72.26 -31.21)"/><path class="h" d="M199.31,132.26c-6.46-5.28-14.67-8.8-22.89-11.15l-0.73-.21c-1,2.22-3.58,4.06-6.9,5.38v38.83H204V141.65A12.25,12.25,0,0,0,199.31,132.26Zm-13.2,8.26c0,4.86-5.65,6.43-5.65,6.43s-5.65-1.57-5.65-6.43c0-2,.59-2,0.59-3.51a3.64,3.64,0,0,0-.73-1.75l1.92-1.94a2.93,2.93,0,0,0,3.92,0,2.92,2.92,0,0,0,3.92,0l2,2a3.68,3.68,0,0,0-.78,1.75c0,1.56.56,1.56,0.56,3.51H186.1Zm13.5,17.27H186.4v-4.4h13.2v4.4Z" transform="translate(-72.26 -31.21)"/><path class="h" d="M173.19,118.91c0,2.83-7.22,6.6-16.14,6.6s-16.14-3.77-16.14-6.6v-7.75a0.14,0.14,0,0,1,.19-0.07,0.16,0.16,0,0,1,.07.07c1.38,2.61,8,5.55,15.87,5.55s14.49-2.93,15.87-5.62a0.14,0.14,0,0,1,.19-0.07,0.16,0.16,0,0,1,.07.07v7.82Z" transform="translate(-72.26 -31.21)"/></g></svg>