<svg xmlns="http://www.w3.org/2000/svg" viewBox="0 0 169.7 204.62"><defs><style>.a{fill:#af1f2b;}.b{fill:#b34356;}.c{fill:none;}.d{fill:#bbbdbf;}.e{fill:#d1d2d3;}.f{fill:#feffff;}</style></defs><title>marker_dps_sel</title><path class="a" d="M258.74,116c0,48.55,76.45,108.74,76.45,108.74V39.59A76.45,76.45,0,0,0,258.74,116Z" transform="translate(-250.36 -31.72)"/><path class="b" d="M335.19,39.59V224.78S411.64,164.59,411.64,116A76.45,76.45,0,0,0,335.19,39.59Z" transform="translate(-250.36 -31.72)"/><path class="b" d="M301.3,184.46C277.38,158,264.74,134.35,264.74,116a70.53,70.53,0,0,1,70.45-70.45v-6A76.45,76.45,0,0,0,258.74,116c0,48.55,76.45,108.74,76.45,108.74V217A355.24,355.24,0,0,1,301.3,184.46Z" transform="translate(-250.36 -31.72)"/><path class="a" d="M335.19,39.59h0v6h0A70.53,70.53,0,0,1,405.64,116c0,18.31-12.64,42-36.56,68.42A355.25,355.25,0,0,1,335.19,217h0v7.76h0S411.64,164.59,411.64,116A76.45,76.45,0,0,0,335.19,39.59Z" transform="translate(-250.36 -31.72)"/><path class="c" d="M335.2,225.29c9.73-9,18.82-18.13,27.1-27.1,31-33.61,49.51-64.88,49.51-83.64,0-41.23-34.36-74.78-76.6-74.78H335V225.08Z" transform="translate(-250.36 -31.72)"/><path class="c" d="M258.6,114.55c0,18.93,18.78,50.5,50.25,84.43,8,8.68,16.82,17.43,26.13,26.1V39.77C292.84,39.89,258.6,73.39,258.6,114.55Z" transform="translate(-250.36 -31.72)"/><path class="d" d="M335.21,31.72H335v8h0.23c42.24,0,76.6,33.55,76.6,74.78,0,18.77-18.51,50-49.51,83.64-8.28,9-17.37,18.06-27.1,27.1l-0.22-.21v11.05l0.22,0.2c9.89-8.95,21.62-20.18,33.23-32.76,32.81-35.57,51.63-68,51.63-89C420.05,68.87,382,31.72,335.21,31.72Z" transform="translate(-250.36 -31.72)"/><path class="e" d="M308.85,199c-31.46-33.94-50.25-65.5-50.25-84.43,0-41.16,34.24-74.65,76.37-74.77v-8c-46.68.12-84.62,37.23-84.62,82.82,0,21.19,19.09,53.93,52.38,89.83,11.33,12.22,22.64,23.06,32.24,31.75V225.08C325.66,216.41,316.9,207.66,308.85,199Z" transform="translate(-250.36 -31.72)"/><path class="f" d="M335.19,84.17c-10.5,0-18.5,1.78-23.47,3.86a23.47,23.47,0,1,0,46.95,0C353.69,85.95,345.69,84.17,335.19,84.17Z" transform="translate(-250.36 -31.72)"/><path class="f" d="M364.38,81a27.66,27.66,0,0,0-5.72-2.77A23.47,23.47,0,0,0,346.4,58.5L344,71.25a1.46,1.46,0,0,1-1.47,1.19h-0.28a1.48,1.48,0,0,1-1.2-1.69,0.07,0.07,0,0,0,0-.05L343.85,56a4.41,4.41,0,0,0-4.25-3.39h-8.8A4.4,4.4,0,0,0,326.5,56l2.79,14.67a1.47,1.47,0,0,1-1.16,1.72h-0.28a1.46,1.46,0,0,1-1.47-1.19L324,58.5a23.47,23.47,0,0,0-12.26,19.69A27.71,27.71,0,0,0,306,81c-3.78,2.1-6,4.59-6,7.34,0,3.23,3.49,6.18,8.71,8.45a0.14,0.14,0,0,0,.19-0.07,0.1,0.1,0,0,0,0-.11,26.68,26.68,0,0,1-1.47-7.5,26,26,0,0,1,.34-4c6.07-3.18,16.14-5.27,27.38-5.27s21.3,2.08,27.38,5.27a26,26,0,0,1,.34,4,26.68,26.68,0,0,1-1.47,7.5,0.14,0.14,0,0,0,.09.18,0.16,0.16,0,0,0,.12,0c5.35-2.32,8.85-5.27,8.85-8.49C370.4,85.55,368.17,83.06,364.38,81Z" transform="translate(-250.36 -31.72)"/><path class="f" d="M323.45,125.29c-3.3-1.32-5.87-3.15-6.9-5.37l-0.73.19a75.5,75.5,0,0,0-22.89,11.15,12.25,12.25,0,0,0-4.69,9.39v23.47h35.21V125.29Zm-17.6,31.5h-13.2v-4.4h13.2v4.4Z" transform="translate(-250.36 -31.72)"/><path class="f" d="M326.39,164.13H344V126.26a33.2,33.2,0,0,1-17.6,0v37.86Z" transform="translate(-250.36 -31.72)"/><path class="f" d="M377.44,131.26c-6.46-5.28-14.67-8.8-22.89-11.15l-0.73-.21c-1,2.22-3.58,4.06-6.9,5.38v38.83h35.21V140.65A12.25,12.25,0,0,0,377.44,131.26Zm-13.2,8.26c0,4.86-5.65,6.43-5.65,6.43s-5.65-1.57-5.65-6.43c0-2,.59-2,0.59-3.51a3.64,3.64,0,0,0-.73-1.75l1.92-1.94a2.93,2.93,0,0,0,3.92,0,2.92,2.92,0,0,0,3.92,0l2,2a3.68,3.68,0,0,0-.78,1.75c0,1.56.56,1.56,0.56,3.51h-0.07Zm13.5,17.27h-13.2v-4.4h13.2v4.4Z" transform="translate(-250.36 -31.72)"/><path class="f" d="M351.33,117.91c0,2.83-7.22,6.6-16.14,6.6s-16.14-3.77-16.14-6.6v-7.75a0.14,0.14,0,0,1,.19-0.07,0.16,0.16,0,0,1,.07.07c1.38,2.61,8,5.55,15.87,5.55s14.49-2.93,15.87-5.62a0.14,0.14,0,0,1,.19-0.07,0.16,0.16,0,0,1,.07.07v7.82Z" transform="translate(-250.36 -31.72)"/></svg>