<svg xmlns="http://www.w3.org/2000/svg" viewBox="0 0 169.7 204.62"><defs><style>.a{fill:#8551a1;}.b{fill:#926daa;}.c{fill:none;}.d{fill:#bbbdbf;}.e{fill:#d1d2d3;}.f{fill:#fff;}</style></defs><title>marker_medecin</title><path class="a" d="M443.36,774.27c0,48.55,76.45,108.74,76.45,108.74V697.82A76.45,76.45,0,0,0,443.36,774.27Z" transform="translate(-434.98 -689.94)"/><path class="b" d="M519.81,697.82V883s76.45-60.19,76.45-108.74A76.45,76.45,0,0,0,519.81,697.82Z" transform="translate(-434.98 -689.94)"/><path class="b" d="M485.92,842.69c-23.92-26.46-36.56-50.12-36.56-68.42a70.53,70.53,0,0,1,70.45-70.45v-6a76.45,76.45,0,0,0-76.45,76.45c0,48.55,76.45,108.74,76.45,108.74v-7.76A355.24,355.24,0,0,1,485.92,842.69Z" transform="translate(-434.98 -689.94)"/><path class="a" d="M519.81,697.82h0v6h0a70.53,70.53,0,0,1,70.45,70.45c0,18.31-12.64,42-36.56,68.42a355.25,355.25,0,0,1-33.89,32.56h0V883h0s76.45-60.19,76.45-108.74A76.45,76.45,0,0,0,519.81,697.82Z" transform="translate(-434.98 -689.94)"/><path class="c" d="M519.82,883.52c9.73-9,18.82-18.13,27.1-27.1,31-33.61,49.51-64.88,49.51-83.64,0-41.23-34.36-74.78-76.6-74.78h-0.23V883.31Z" transform="translate(-434.98 -689.94)"/><path class="c" d="M443.22,772.77c0,18.93,18.78,50.5,50.25,84.43,8,8.68,16.82,17.43,26.13,26.1V698C477.46,698.12,443.22,731.62,443.22,772.77Z" transform="translate(-434.98 -689.94)"/><path class="d" d="M519.82,689.94h-0.23v8h0.23c42.24,0,76.6,33.55,76.6,74.78,0,18.77-18.51,50-49.51,83.64-8.28,9-17.37,18.06-27.1,27.1l-0.22-.21v11.05l0.22,0.2c9.89-8.95,21.62-20.18,33.23-32.76,32.81-35.57,51.63-68,51.63-89C604.67,727.1,566.61,689.94,519.82,689.94Z" transform="translate(-434.98 -689.94)"/><path class="e" d="M493.47,857.21c-31.46-33.94-50.25-65.5-50.25-84.43,0-41.16,34.24-74.65,76.37-74.77v-8c-46.68.12-84.62,37.23-84.62,82.82,0,21.19,19.09,53.93,52.38,89.83,11.33,12.22,22.64,23.06,32.24,31.75V883.31C510.28,874.64,501.51,865.89,493.47,857.21Z" transform="translate(-434.98 -689.94)"/><path class="f" d="M569.79,813.21l0,1.19v0.86c0,0.37,0,.75,0,1.13,0,1.44-.94,4-2.51,4.91a5.78,5.78,0,0,0-.61.38,48,48,0,0,1-5.6,3.11c-6.26,2.78-13.54,4.77-22.91,6.25-3.13.5-6.09,0.85-9,1.1s-5.6.37-8.52,0.37h-0.91c-2.92,0-5.7-.12-8.52-0.37s-5.91-.6-9-1.1c-9.38-1.48-16.65-3.47-22.89-6.25a46.7,46.7,0,0,1-5.58-3.09c-0.21-.14-0.41-0.27-0.62-0.39-1.58-.93-2.54-3.48-2.52-4.93,0-.7,0-1.46,0-2l-0.07-1.28c-0.08-3.31-.18-6.72,1.09-9.54,1.49-3.32,4.61-5.81,7.69-8.08a52.11,52.11,0,0,1,4.81-3.2c0.39,0.85.86,1.78,1.45,2.91,0.27,0.53.55,1.05,0.85,1.59-4,3.59-5.55,10.47-3.77,17.34,0.13,0.54.3,1.13,0.5,1.72l0.26,0.82a16,16,0,0,0,.86,2.27c1,2.1,2.33,3.16,3.88,3.16a3.87,3.87,0,0,0,.89-0.11l0.14,0,0.7-.19a3.73,3.73,0,0,0,5.13-2.77l0.14-.83h-0.11a3.75,3.75,0,0,0-6.63-2.28c-0.09-.26-0.18-0.54-0.27-0.85l-0.12-.37c0-.14-0.08-0.27-0.13-0.4-2.2-6.5-.7-13.09,3.28-14.65,4.33-1.18,9.42,3.2,11.6,9.65,0.08,0.23.17,0.44,0.27,0.75l0,0.15c0,0.11.08,0.23,0.12,0.34a4,4,0,0,0-.93.2,3.66,3.66,0,0,0-2.14,1.87,3.73,3.73,0,0,0,6.65,3.37,3.52,3.52,0,0,0,1.88-3.48,9,9,0,0,0-.18-1.72,15.38,15.38,0,0,0-.69-2.29l-0.07-.16c-0.08-.23-0.15-0.44-0.23-0.69-2.64-7.76-8.79-13.19-14.95-13.19a10.65,10.65,0,0,0-1.16.08c-0.47-.86-0.88-1.63-1.25-2.37s-0.86-1.73-1.23-2.52l0.06,0,1.28-.66,2.14-1.11c1-.49,1.92-1,2.91-1.45l0,0a33.77,33.77,0,0,1,4.44-1.73l0.26-.1L500,784.7c0.34,0.52.68,1,1,1.54,1.35,2,2.49,3.59,3.56,5,2.13,2.93,4.27,5.68,6.07,8,0.51,0.65,1,1.29,1.54,1.94l1.56,2,0.34,0.4,0.3,0.37,1,1.22,0.28-1.53c0.61-3.22,1.41-7.65,1.49-8.34l0-.54a0.71,0.71,0,0,0,0-.17l-0.08-.38a3.66,3.66,0,0,0-.3-0.55l-0.68-1c-0.36-.54-0.71-1.09-1-1.63a0.19,0.19,0,0,1,0-.1l0.1-.31c0.15-.43.3-0.88,0.48-1.33l0.2-.59c0.23-.6.44-1.22,0.65-1.82l0.08,0a21.11,21.11,0,0,1,3.53-.18,23.45,23.45,0,0,1,3.65.18l0.1,0c0.14,0.45.3,0.9,0.46,1.34l0.5,1.39c0.15,0.45.31,0.91,0.46,1.29a0.63,0.63,0,0,1,0,.14c-0.35.55-.7,1.11-1.06,1.65l-0.69,1.06a2.24,2.24,0,0,0-.26.52l-0.06.19a1.09,1.09,0,0,0,0,.36l0,0.56c0.08,0.66.84,4.93,1.45,8.16l0.3,1.61,1-1.32c0.14-.19.29-0.38,0.47-0.57l1.75-2.2,1.68-2.1c1.86-2.4,3.84-5,5.73-7.57,1.32-1.81,2.5-3.49,3.62-5.12,0.38-.55.74-1.12,1.13-1.71l0.31,0.12a33.42,33.42,0,0,1,4.4,1.72l0.07,0c1,0.45,1.94.94,2.88,1.43l2.18,1.12c1.08,0.55,2.22,1.16,3.37,1.79-0.26,1.11-.55,2.16-0.86,3.15a39.56,39.56,0,0,1-3.5,7.91,9.65,9.65,0,0,0-3.53-.69,9.43,9.43,0,0,0-.7,18.83c0.23,0,.47,0,0.7,0a9.44,9.44,0,0,0,9.43-9.41,9.48,9.48,0,0,0-1.87-5.64,43.35,43.35,0,0,0,3.81-8.07c0.37-1,.7-2.14,1-3.41,1,0.62,2,1.33,3,2.1,3.07,2.28,6.2,4.79,7.69,8.07C570,806.4,569.9,809.86,569.79,813.21Z" transform="translate(-434.98 -689.94)"/><path class="f" d="M550,810.49a4.38,4.38,0,1,1-4.39-4.39,4.51,4.51,0,0,1,1.49.26,4.46,4.46,0,0,1,2.38,2.07A4.34,4.34,0,0,1,550,810.49Z" transform="translate(-434.98 -689.94)"/><path class="f" d="M544,748.31c0.07-1.22-.62-2.88-1.93-3.19-0.66-.16-1.26.12-1.58-0.6a5.47,5.47,0,0,1,.17-1.91,25.27,25.27,0,0,1,.45-3.29,29.09,29.09,0,0,0,.87-6,14,14,0,0,0-8.54-13.89q-1-.43-2-0.8a33.4,33.4,0,0,0-11.38-2q-1.26,0-2.54.07c-2.73.16-5.63,0.38-8.13,1.58a7.18,7.18,0,0,0-.71.4,7.94,7.94,0,0,0-2.3,2.31,7.43,7.43,0,0,1-1.73,2.18,10.42,10.42,0,0,1-2.42,1.51,4.07,4.07,0,0,0-1.93,1.68,11.77,11.77,0,0,0-1.27,5.24,59.58,59.58,0,0,0,.16,6.67,18.62,18.62,0,0,0,.36,2.36,15.34,15.34,0,0,1,.45,3.62,0.81,0.81,0,0,1-.4.73l-0.23,0a10.88,10.88,0,0,0-1.3.13c-1.31.31-2,2-1.93,3.19,0,0.08,0,.16,0,0.23a14.06,14.06,0,0,0,0,1.71c0.07,1.15.3,2.28,0.44,3.42a7.63,7.63,0,0,0,3.92,6.18,2.64,2.64,0,0,1,1,1.53c1.46,5.66,4.29,10.22,8.88,13.37,0.57,0.39,1.16.75,1.79,1.1a22.82,22.82,0,0,0,3,1.26l0.22,0.09a11.33,11.33,0,0,0,2.37.73,13.53,13.53,0,0,0,4.46,0,11.19,11.19,0,0,0,2.34-.72,1.16,1.16,0,0,1,.22-0.08,25.15,25.15,0,0,0,3-1.28q0.93-.52,1.78-1.1a20.59,20.59,0,0,0,5.92-6.21,25.41,25.41,0,0,0,1.94-3.93c0.53-1.32.52-2.78,1.45-3.92a21.7,21.7,0,0,1,2.36-2.2,7.26,7.26,0,0,0,2.17-4.82c0.14-1.14.37-2.28,0.44-3.42a14,14,0,0,0,0-1.71C544,748.47,544,748.39,544,748.31Z" transform="translate(-434.98 -689.94)"/></svg>