<svg xmlns="http://www.w3.org/2000/svg" viewBox="0 0 169.7 204.62"><defs><style>.a{fill:#9c4c86;}.b{fill:#9e6393;}.c{fill:none;}.d{fill:#bbbdbf;}.e{fill:#d1d2d3;}.f{fill:#fdfdfe;fill-rule:evenodd;}</style></defs><title>marker_pharmacie_sel</title><path class="a" d="M254.6,774.37c0,48.55,76.45,108.74,76.45,108.74V697.92A76.45,76.45,0,0,0,254.6,774.37Z" transform="translate(-246.22 -690.04)"/><path class="b" d="M331.05,697.92V883.11s76.45-60.19,76.45-108.74A76.45,76.45,0,0,0,331.05,697.92Z" transform="translate(-246.22 -690.04)"/><path class="b" d="M297.16,842.79c-23.92-26.46-36.56-50.12-36.56-68.42a70.53,70.53,0,0,1,70.45-70.45v-6a76.45,76.45,0,0,0-76.45,76.45c0,48.55,76.45,108.74,76.45,108.74v-7.76A355.24,355.24,0,0,1,297.16,842.79Z" transform="translate(-246.22 -690.04)"/><path class="a" d="M331.05,697.92h0v6h0a70.53,70.53,0,0,1,70.45,70.45c0,18.31-12.64,42-36.56,68.42a355.25,355.25,0,0,1-33.89,32.56h0v7.76h0s76.45-60.19,76.45-108.74A76.45,76.45,0,0,0,331.05,697.92Z" transform="translate(-246.22 -690.04)"/><path class="c" d="M331.06,883.62c9.73-9,18.82-18.13,27.1-27.1,31-33.61,49.51-64.88,49.51-83.64,0-41.23-34.36-74.78-76.6-74.78h-0.23V883.4Z" transform="translate(-246.22 -690.04)"/><path class="c" d="M254.47,772.87c0,18.93,18.78,50.5,50.25,84.43,8,8.68,16.82,17.43,26.13,26.1V698.1C288.7,698.22,254.47,731.71,254.47,772.87Z" transform="translate(-246.22 -690.04)"/><path class="d" d="M331.07,690h-0.23v8h0.23c42.24,0,76.6,33.55,76.6,74.78,0,18.77-18.51,50-49.51,83.64-8.28,9-17.37,18.06-27.1,27.1l-0.22-.21v11.05l0.22,0.2c9.89-8.95,21.62-20.18,33.23-32.76,32.81-35.57,51.63-68,51.63-89C415.92,727.2,377.85,690,331.07,690Z" transform="translate(-246.22 -690.04)"/><path class="e" d="M304.71,857.3c-31.46-33.94-50.25-65.5-50.25-84.43,0-41.16,34.24-74.65,76.37-74.77v-8c-46.68.12-84.62,37.23-84.62,82.82,0,21.19,19.09,53.93,52.38,89.83,11.33,12.22,22.64,23.06,32.24,31.75V883.4C321.53,874.74,312.76,866,304.71,857.3Z" transform="translate(-246.22 -690.04)"/><path class="f" d="M389.21,736.12c-4.67,9.51-30.72,7.39-43.72,10.18-3.62,1.54-9.53,10.59-14,13.31q0.11-4.73.24-9.35a6.23,6.23,0,1,0-5.43-.24l0.18,9.47c-4.4-2.87-10.2-11.67-13.76-13.19-12.9-2.86-22.91,2.78-39.91-9.58-0.64,16.34,13.06,15.89,28.67,19-15.64-.83-29.88-6.29-35.06-9.49-2.09,14.64,28.89,16.48,37.83,15.89-2.74.49-15.13,1.44-29.77-1.25,3.88,10.46,24.56,9.45,33.76,8.07-10.75,3-15.83,3.29-23,2.39,2.81,8.75,16.28,5.64,22.71,5.18,3.54-6.31,10.89-10,18.66-10.77l0.12,6.09a19.1,19.1,0,0,0-7.45,2.79c-3.94.31-5.78,0.76-6.6,2s-4.56,8.56-3.6,10c1.44,2.11,12.44-2.52,12.29-6.18a21.9,21.9,0,0,1,5.5-1.77q0.13,6.89.27,13.83c-5.29.74-11,3.29-11.92,9-1.24,7.32,5.89,10.2,12.35,12.38q0.1,4.82.2,9.63c-3.75.71-8.21,3-8.21,6.68,0,4.85,4.5,6.74,8.54,8.22l0.13,5.52c-2,.8-3.45,1.93-3.68,4.47-0.25,2.74,1.55,4.74,3.92,6v0.49l1.83,2.89q0-1.27,0-2.55a15.31,15.31,0,0,0,4.93.89c-1.42-.82-3.32-1.75-4.89-2.81q0.12-7,.21-14.13c2.79,1,4.47,2.39.7,4a36.64,36.64,0,0,0,0,4c8.72-2.58,9.15-9.29-.53-12.34l-0.12,0c0.07-6.54.12-13.17,0.17-19.83,3.54,1.21,6.3,2.41,6.38,4.37,0.12,2.82-2.9,3.56-5.2,3.56,0,1.79,0,3.54,0,5.35,5.52-.34,10.95-2.49,11-8.86,0-6.59-6.28-9.12-12.12-10.78,0.08-10.13.16-20.29,0.29-30.27,6.26,0.07,11.27,3,8.92,8.75-1.24,3-4.43,4.27-7.35,4.7-0.07,2.43-.09,4.85-0.1,7.28,10.08-1.52,18.36-8,14.38-18.51-2.37-6.26-9.11-9-15.75-9q0-3,.1-5.87c8.19,0.39,16.11,4,19.83,11,8.21,1.88,19.6,1.36,21.74-5.32-7.17.9-12.25,0.6-23-2.39,9.2,1.38,29.87,2.39,33.76-8.07-14.64,2.69-27,1.74-29.77,1.25,8.95,0.59,39.92-1.25,37.83-15.89-5.18,3.2-19.42,8.66-35.06,9.49C372.34,752.62,389.85,752.46,389.21,736.12ZM327.3,799.44q0.08,4.09.17,8.17C321,805.5,321,800.62,327.3,799.44Zm0.61,29.11,0.11,5.19C324.21,832,322.4,829.66,327.91,828.55Zm-0.37,20.88a1.8,1.8,0,0,1,.81-1.58l0.09,3.72A3.34,3.34,0,0,1,327.54,849.43Z" transform="translate(-246.22 -690.04)"/></svg>