<svg xmlns="http://www.w3.org/2000/svg" viewBox="0 0 169.7 204.62"><defs><style>.a{fill:#febc12;}.b{fill:#ffd067;}.c{fill:none;}.d{fill:#bbbdbf;}.e{fill:#d1d2d3;}.f{fill:#fff;}</style></defs><title>marker_soins_intensifs</title><path class="a" d="M76.82,552.68c0,48.55,76.45,108.74,76.45,108.74V476.23A76.45,76.45,0,0,0,76.82,552.68Z" transform="translate(-68.44 -468.36)"/><path class="b" d="M153.27,476.23V661.42s76.45-60.19,76.45-108.74A76.45,76.45,0,0,0,153.27,476.23Z" transform="translate(-68.44 -468.36)"/><path class="b" d="M119.38,621.11C95.47,594.65,82.82,571,82.82,552.68a70.53,70.53,0,0,1,70.45-70.45v-6a76.45,76.45,0,0,0-76.45,76.45c0,48.55,76.45,108.74,76.45,108.74v-7.76A355.24,355.24,0,0,1,119.38,621.11Z" transform="translate(-68.44 -468.36)"/><path class="a" d="M153.27,476.23h0v6h0a70.53,70.53,0,0,1,70.45,70.45c0,18.31-12.64,42-36.56,68.42a355.25,355.25,0,0,1-33.89,32.56h0v7.76h0s76.45-60.19,76.45-108.74A76.45,76.45,0,0,0,153.27,476.23Z" transform="translate(-68.44 -468.36)"/><path class="c" d="M153.28,661.93c9.73-9,18.82-18.13,27.1-27.1,31-33.61,49.51-64.88,49.51-83.64,0-41.23-34.36-74.78-76.6-74.78h-0.23V661.72Z" transform="translate(-68.44 -468.36)"/><path class="c" d="M76.68,551.19c0,18.93,18.78,50.5,50.25,84.43,8,8.68,16.82,17.43,26.13,26.1V476.41C110.92,476.54,76.68,510,76.68,551.19Z" transform="translate(-68.44 -468.36)"/><path class="d" d="M153.29,468.36h-0.23v8h0.23c42.24,0,76.6,33.55,76.6,74.78,0,18.77-18.51,50-49.51,83.64-8.28,9-17.37,18.06-27.1,27.1l-0.22-.21v11.05l0.22,0.2c9.89-8.95,21.62-20.18,33.23-32.76,32.81-35.57,51.63-68,51.63-89C238.13,505.52,200.07,468.36,153.29,468.36Z" transform="translate(-68.44 -468.36)"/><path class="e" d="M126.93,635.62c-31.46-33.94-50.25-65.5-50.25-84.43,0-41.16,34.24-74.65,76.37-74.77v-8c-46.68.12-84.62,37.23-84.62,82.82,0,21.19,19.09,53.93,52.38,89.83,11.33,12.22,22.64,23.06,32.24,31.75V661.72C143.75,653.06,135,644.3,126.93,635.62Z" transform="translate(-68.44 -468.36)"/><path class="f" d="M149.33,544.65l-0.39,0a12.66,12.66,0,0,0-13.67,12.62v4.36h14.06v-17Z" transform="translate(-68.44 -468.36)"/><path class="f" d="M149.33,571.27v-6.15H133.12l-22.46-9.51V524.69a5.27,5.27,0,0,0-10.55,0v64.68a3.87,3.87,0,0,0,3.87,3.87h2.81a3.87,3.87,0,0,0,3.87-3.87v-6.68H195v6.68a3.87,3.87,0,0,0,3.87,3.87h2.81a3.87,3.87,0,0,0,3.87-3.87V575.66H153.72A4.39,4.39,0,0,1,149.33,571.27Z" transform="translate(-68.44 -468.36)"/><path class="f" d="M202.41,544.71a8.7,8.7,0,0,0-8-1.05,49.24,49.24,0,0,1-20.37,2.68l-12.42-.85V501.84h2.64a2.64,2.64,0,1,0,0-5.27h-2.64v-2.64a2.64,2.64,0,0,0-5.27,0v2.64H137.9a2.64,2.64,0,1,0,0,5.27h6.15v3.52h-1.41a3.87,3.87,0,0,0-3.87,3.87v9.84a3.87,3.87,0,0,0,3.87,3.87h1.41v10.55a1.76,1.76,0,1,0,3.52,0V522.93H149a3.87,3.87,0,0,0,3.87-3.87v-9.84a3.87,3.87,0,0,0-3.87-3.87h-1.41v-3.52h8.79v43.29l-3.52-.24v24.62a2.64,2.64,0,0,0,2.64,2.64h50.09v-20.3C205.57,549,204.73,546.34,202.41,544.71Zm-54.13-35.84a1.05,1.05,0,0,1,1.05,1.05v6h-7v-6a1.05,1.05,0,0,1,1.05-1.05h4.92Z" transform="translate(-68.44 -468.36)"/><circle class="f" cx="55.4" cy="78.39" r="9.67"/></svg>