<svg xmlns="http://www.w3.org/2000/svg" viewBox="0 0 169.7 204.62"><defs><style>.a{fill:#cd922a;}.b{fill:#ddac56;}.c{fill:none;}.d{fill:#bbbdbf;}.e{fill:#d1d2d3;}.f{fill:#fff;}</style></defs><title>marker_soins_intensifs_sel</title><path class="a" d="M253.62,556.17c0,48.55,76.45,108.74,76.45,108.74V479.72A76.45,76.45,0,0,0,253.62,556.17Z" transform="translate(-245.23 -471.84)"/><path class="b" d="M330.07,479.72V664.91s76.45-60.19,76.45-108.74A76.45,76.45,0,0,0,330.07,479.72Z" transform="translate(-245.23 -471.84)"/><path class="b" d="M296.18,624.59c-23.92-26.46-36.56-50.12-36.56-68.42a70.53,70.53,0,0,1,70.45-70.45v-6a76.45,76.45,0,0,0-76.45,76.45c0,48.55,76.45,108.74,76.45,108.74v-7.76A355.24,355.24,0,0,1,296.18,624.59Z" transform="translate(-245.23 -471.84)"/><path class="a" d="M330.07,479.72h0v6h0a70.53,70.53,0,0,1,70.45,70.45c0,18.31-12.64,42-36.56,68.42a355.25,355.25,0,0,1-33.89,32.56h0v7.76h0s76.45-60.19,76.45-108.74A76.45,76.45,0,0,0,330.07,479.72Z" transform="translate(-245.23 -471.84)"/><path class="c" d="M330.07,665.42c9.73-9,18.82-18.13,27.1-27.1,31-33.61,49.51-64.88,49.51-83.64,0-41.23-34.36-74.78-76.6-74.78h-0.23V665.21Z" transform="translate(-245.23 -471.84)"/><path class="c" d="M253.48,554.67c0,18.93,18.78,50.5,50.25,84.43,8,8.68,16.82,17.43,26.13,26.1V479.9C287.72,480,253.48,513.51,253.48,554.67Z" transform="translate(-245.23 -471.84)"/><path class="d" d="M330.08,471.84h-0.23v8h0.23c42.24,0,76.6,33.55,76.6,74.78,0,18.77-18.51,50-49.51,83.64-8.28,9-17.37,18.06-27.1,27.1l-0.22-.21v11.05l0.22,0.2c9.89-8.95,21.62-20.18,33.23-32.76,32.81-35.57,51.63-68,51.63-89C414.93,509,376.87,471.84,330.08,471.84Z" transform="translate(-245.23 -471.84)"/><path class="e" d="M303.73,639.11c-31.46-33.94-50.25-65.5-50.25-84.43,0-41.16,34.24-74.65,76.37-74.77v-8c-46.68.12-84.62,37.23-84.62,82.82,0,21.19,19.09,53.93,52.38,89.83,11.33,12.22,22.64,23.06,32.24,31.75V665.21C320.54,656.54,311.77,647.78,303.73,639.11Z" transform="translate(-245.23 -471.84)"/><path class="f" d="M326.12,548.13l-0.39,0a12.66,12.66,0,0,0-13.67,12.62v4.36h14.06v-17Z" transform="translate(-245.23 -471.84)"/><path class="f" d="M326.12,574.75V568.6H309.92l-22.46-9.51V528.18a5.27,5.27,0,1,0-10.55,0v64.68a3.87,3.87,0,0,0,3.87,3.87h2.81a3.87,3.87,0,0,0,3.87-3.87v-6.68h84.37v6.68a3.87,3.87,0,0,0,3.87,3.87h2.81a3.87,3.87,0,0,0,3.87-3.87V579.15H330.52A4.39,4.39,0,0,1,326.12,574.75Z" transform="translate(-245.23 -471.84)"/><path class="f" d="M379.2,548.2a8.7,8.7,0,0,0-8-1.05,49.24,49.24,0,0,1-20.37,2.68L338.43,549V505.33h2.64a2.64,2.64,0,1,0,0-5.27h-2.64v-2.64a2.64,2.64,0,0,0-5.27,0v2.64H314.7a2.64,2.64,0,1,0,0,5.27h6.15v3.52h-1.41a3.87,3.87,0,0,0-3.87,3.87v9.84a3.87,3.87,0,0,0,3.87,3.87h1.41V537a1.76,1.76,0,1,0,3.52,0V526.42h1.41a3.87,3.87,0,0,0,3.87-3.87v-9.84a3.87,3.87,0,0,0-3.87-3.87h-1.41v-3.52h8.79v43.29l-3.52-.24V573a2.64,2.64,0,0,0,2.64,2.64h50.09v-20.3C382.37,552.5,381.53,549.83,379.2,548.2Zm-54.13-35.84a1.05,1.05,0,0,1,1.05,1.05v6h-7v-6a1.05,1.05,0,0,1,1.05-1.05h4.92Z" transform="translate(-245.23 -471.84)"/><circle class="f" cx="55.4" cy="78.39" r="9.67"/></svg>