<svg xmlns="http://www.w3.org/2000/svg" viewBox="0 0 169.7 204.62"><defs><style>.a{fill:#26508c;}.b{fill:#326393;}.c{fill:none;}.d{fill:#bbbdbf;}.e{fill:#d1d2d3;}.f{fill:#fff;}</style></defs><title>marker_urgences_hospitalieres_sel</title><path class="a" d="M630.36,115.79c0,48.55,76.45,108.74,76.45,108.74V39.34A76.45,76.45,0,0,0,630.36,115.79Z" transform="translate(-621.97 -31.46)"/><path class="b" d="M706.81,39.34V224.53s76.45-60.19,76.45-108.74A76.45,76.45,0,0,0,706.81,39.34Z" transform="translate(-621.97 -31.46)"/><path class="b" d="M672.92,184.21c-23.92-26.46-36.56-50.12-36.56-68.42a70.53,70.53,0,0,1,70.45-70.45v-6a76.45,76.45,0,0,0-76.45,76.45c0,48.55,76.45,108.74,76.45,108.74v-7.76A355.24,355.24,0,0,1,672.92,184.21Z" transform="translate(-621.97 -31.46)"/><path class="a" d="M706.81,39.34h0v6h0a70.53,70.53,0,0,1,70.45,70.45c0,18.31-12.64,42-36.56,68.42a355.25,355.25,0,0,1-33.89,32.56h0v7.76h0s76.45-60.19,76.45-108.74A76.45,76.45,0,0,0,706.81,39.34Z" transform="translate(-621.97 -31.46)"/><path class="c" d="M706.81,225c9.73-9,18.82-18.13,27.1-27.1,31-33.61,49.51-64.88,49.51-83.64,0-41.23-34.36-74.78-76.6-74.78h-0.23V224.83Z" transform="translate(-621.97 -31.46)"/><path class="c" d="M630.22,114.29c0,18.93,18.78,50.5,50.25,84.43,8,8.68,16.82,17.43,26.13,26.1V39.52C664.46,39.64,630.22,73.14,630.22,114.29Z" transform="translate(-621.97 -31.46)"/><path class="d" d="M706.82,31.46h-0.23v8h0.23c42.24,0,76.6,33.55,76.6,74.78,0,18.77-18.51,50-49.51,83.64-8.28,9-17.37,18.06-27.1,27.1l-0.22-.21v11.05l0.22,0.2c9.89-8.95,21.62-20.18,33.23-32.76,32.81-35.57,51.63-68,51.63-89C791.67,68.62,753.61,31.46,706.82,31.46Z" transform="translate(-621.97 -31.46)"/><path class="e" d="M680.46,198.73c-31.46-33.94-50.25-65.5-50.25-84.43,0-41.16,34.24-74.65,76.37-74.77v-8C659.91,31.59,622,68.7,622,114.29c0,21.19,19.09,53.93,52.38,89.83,11.33,12.22,22.64,23.06,32.24,31.75V224.83C697.28,216.16,688.51,207.4,680.46,198.73Z" transform="translate(-621.97 -31.46)"/><path class="f" d="M755.29,158.43h-2.23V86.65a1,1,0,0,0-1-.88H724.11v4a6.4,6.4,0,0,1-6.38,6.39h-4.86a6.46,6.46,0,0,1-6.38-5.75,6.41,6.41,0,0,1-6.38,5.75h-4.86a6.2,6.2,0,0,1-6.14-6.39v-4H661.19a0.71,0.71,0,0,0-.64.88v71.78h-2.23a2.4,2.4,0,0,0,0,4.79h97A2.4,2.4,0,0,0,755.29,158.43Zm-27-59.09h12v12h-12v-12Zm0,18.36h12v12h-12v-12Zm0,18.36h12v12h-12v-12ZM710,99.35h12v12H710v-12Zm0,18.36h12v12H710v-12Zm12,18.36v22.36H708.4V136.08H722Zm-30.3-36.73h12v12h-12v-12Zm0,18.36h12v12h-12v-12ZM673.31,99.35h12v12h-12v-12Zm0,18.36h12v12h-12v-12Zm0,18.36h12v12h-12v-12Zm18.34,0h13.56v22.36H691.65V136.08Z" transform="translate(-621.97 -31.46)"/><path class="f" d="M694.35,93.27h5.35a1.84,1.84,0,0,0,1.75-1.91V82.79h10.7v8.58a1.65,1.65,0,0,0,1.49,1.91H719a1.84,1.84,0,0,0,1.75-1.91l-0.09-26.69a1.84,1.84,0,0,0-1.75-1.91h-5.26c-1,0-1.49,1-1.49,2v8.58H701.54l-0.09-8.58a1.91,1.91,0,0,0-1.84-1.91h-5.26c-1-.1-1.49.86-1.49,1.91V91.37A1.65,1.65,0,0,0,694.35,93.27Z" transform="translate(-621.97 -31.46)"/></svg>