<svg xmlns="http://www.w3.org/2000/svg" viewBox="0 0 169.7 204.62"><defs><style>.a{fill:#4064af;}.b{fill:#527fc1;}.c{fill:none;}.d{fill:#bbbdbf;}.e{fill:#d1d2d3;}.f{fill:#fff;}</style></defs><title>marker_urgences_hospitalieres</title><path class="a" d="M446,115.79c0,48.55,76.45,108.74,76.45,108.74V39.34A76.45,76.45,0,0,0,446,115.79Z" transform="translate(-437.64 -31.46)"/><path class="b" d="M522.47,39.34V224.53s76.45-60.19,76.45-108.74A76.45,76.45,0,0,0,522.47,39.34Z" transform="translate(-437.64 -31.46)"/><path class="b" d="M488.58,184.21C464.67,157.75,452,134.09,452,115.79a70.53,70.53,0,0,1,70.45-70.45v-6A76.45,76.45,0,0,0,446,115.79c0,48.55,76.45,108.74,76.45,108.74v-7.76A355.24,355.24,0,0,1,488.58,184.21Z" transform="translate(-437.64 -31.46)"/><path class="a" d="M522.47,39.34h0v6h0a70.53,70.53,0,0,1,70.45,70.45c0,18.31-12.64,42-36.56,68.42a355.25,355.25,0,0,1-33.89,32.56h0v7.76h0s76.45-60.19,76.45-108.74A76.45,76.45,0,0,0,522.47,39.34Z" transform="translate(-437.64 -31.46)"/><path class="c" d="M522.48,225c9.73-9,18.82-18.13,27.1-27.1,31-33.61,49.51-64.88,49.51-83.64,0-41.23-34.36-74.78-76.6-74.78h-0.23V224.83Z" transform="translate(-437.64 -31.46)"/><path class="c" d="M445.89,114.29c0,18.93,18.78,50.5,50.25,84.43,8,8.68,16.82,17.43,26.13,26.1V39.52C480.12,39.64,445.89,73.14,445.89,114.29Z" transform="translate(-437.64 -31.46)"/><path class="d" d="M522.49,31.46h-0.23v8h0.23c42.24,0,76.6,33.55,76.6,74.78,0,18.77-18.51,50-49.51,83.64-8.28,9-17.37,18.06-27.1,27.1l-0.22-.21v11.05l0.22,0.2c9.89-8.95,21.62-20.18,33.23-32.76,32.81-35.57,51.63-68,51.63-89C607.34,68.62,569.27,31.46,522.49,31.46Z" transform="translate(-437.64 -31.46)"/><path class="e" d="M496.13,198.73c-31.46-33.94-50.25-65.5-50.25-84.43,0-41.16,34.24-74.65,76.37-74.77v-8c-46.68.12-84.62,37.23-84.62,82.82,0,21.19,19.09,53.93,52.38,89.83,11.33,12.22,22.64,23.06,32.24,31.75V224.83C512.95,216.16,504.18,207.4,496.13,198.73Z" transform="translate(-437.64 -31.46)"/><path class="f" d="M571.48,156.72h-2.23V84.94a1,1,0,0,0-1-.88H540.3v4a6.4,6.4,0,0,1-6.38,6.39h-4.86a6.46,6.46,0,0,1-6.38-5.75,6.41,6.41,0,0,1-6.38,5.75h-4.86a6.2,6.2,0,0,1-6.14-6.39v-4H477.38a0.71,0.71,0,0,0-.64.88v71.78h-2.23a2.4,2.4,0,0,0,0,4.79h97A2.4,2.4,0,0,0,571.48,156.72Zm-27-59.09h12v12h-12v-12Zm0,18.36h12v12h-12V116Zm0,18.36h12v12h-12v-12ZM526.19,97.63h12v12h-12v-12Zm0,18.36h12v12h-12V116Zm12,18.36v22.36H524.59V134.36h13.56Zm-30.3-36.73h12v12h-12v-12Zm0,18.36h12v12h-12V116ZM489.5,97.63h12v12h-12v-12Zm0,18.36h12v12h-12V116Zm0,18.36h12v12h-12v-12Zm18.34,0H521.4v22.36H507.84V134.36Z" transform="translate(-437.64 -31.46)"/><path class="f" d="M510.54,91.56h5.35a1.84,1.84,0,0,0,1.75-1.91V81.07h10.7v8.58a1.65,1.65,0,0,0,1.49,1.91h5.35a1.84,1.84,0,0,0,1.75-1.91L536.86,63a1.84,1.84,0,0,0-1.75-1.91h-5.26c-1,0-1.49,1-1.49,2v8.58H517.73l-0.09-8.58a1.91,1.91,0,0,0-1.84-1.91h-5.26c-1-.1-1.49.86-1.49,1.91V89.65A1.65,1.65,0,0,0,510.54,91.56Z" transform="translate(-437.64 -31.46)"/></svg>