<svg id="Calque_1" data-name="Calque 1" xmlns="http://www.w3.org/2000/svg" viewBox="0 0 42.53 42.53"><defs><style>.cls-1{fill:#fff;}.cls-2{fill:none;stroke:#fff;stroke-miterlimit:10;stroke-width:3px;}</style></defs><title>github</title><path class="cls-1" d="M532.39,371.68a13.77,13.77,0,0,0-13.71,13.71,14.23,14.23,0,0,0,10.5,13.71v-4.54a3.3,3.3,0,0,1-3.7-1.65,1.84,1.84,0,0,0-1.44-1.05l-0.14-1.6a3.3,3.3,0,0,1,3,1.83,1.78,1.78,0,0,0,1,.88,2.16,2.16,0,0,0,1.35-.12,3.77,3.77,0,0,1,.94-1.93h0c-3.57-.53-5-2.43-5.56-3.92a6.29,6.29,0,0,1,1-6,0.22,0.22,0,0,0,.05-0.17,5.26,5.26,0,0,1,.16-3.51,5.55,5.55,0,0,1,3,1.15l0.39,0.23c0.16,0.1.11,0,.27,0a10.44,10.44,0,0,1,5.8,0h0.12l0.11-.05c2.78-1.69,2.68-1.14,3.43-1.38a5.35,5.35,0,0,1,.16,3.51c-0.08.25,2.41,2.53,1,6.2-0.56,1.5-2,3.39-5.56,3.92h0a3.53,3.53,0,0,1,1,2.51v5.66a14.23,14.23,0,0,0,10.5-13.71A13.77,13.77,0,0,0,532.39,371.68Z" transform="translate(-510.65 -364.45)"/><rect class="cls-2" x="1.5" y="1.5" width="39.53" height="39.53"/></svg>