<svg id="Calque_1" data-name="Calque 1" xmlns="http://www.w3.org/2000/svg" xmlns:xlink="http://www.w3.org/1999/xlink" viewBox="0 0 92.64 92.64"><defs><style>.cls-1{stroke:#777;stroke-miterlimit:10;fill:url(#Dégradé_sans_nom_8);}.cls-2{fill:#787878;}</style><linearGradient id="Dégradé_sans_nom_8" x1="46.32" y1="0.5" x2="46.32" y2="92.14" gradientUnits="userSpaceOnUse"><stop offset="0" stop-color="#fff"/><stop offset="1" stop-color="#d9d9d9"/></linearGradient></defs><title>github</title><rect class="cls-1" x="0.5" y="0.5" width="91.64" height="91.64"/><path class="cls-2" d="M72.57,505a22.05,22.05,0,0,0-22,22c0,10.3,7.22,19.65,16.82,22v-7.27A5.29,5.29,0,0,1,61.5,539c-0.5-.84-1.38-1.75-2.31-1.69L59,534.74c2-.17,3.72,1.22,4.75,2.94a2.85,2.85,0,0,0,1.65,1.41,3.46,3.46,0,0,0,2.16-.19,6,6,0,0,1,1.51-3.1h0c-5.72-.85-8-3.89-8.91-6.28a10.08,10.08,0,0,1,1.56-9.67,0.34,0.34,0,0,0,.09-0.27A8.43,8.43,0,0,1,62,514c1.12,0.33,1.3-.33,4.87,1.84l0.62,0.37c0.26,0.15.18,0.07,0.44,0a16.73,16.73,0,0,1,9.28,0l0.2,0s0.05,0,.17-0.08c4.46-2.7,4.3-1.82,5.5-2.21a8.57,8.57,0,0,1,.25,5.63c-0.13.4,3.87,4.06,1.65,9.93-0.9,2.4-3.18,5.43-8.91,6.29h0c0.73,1.12,1.61,1.71,1.61,4v9.07c9.59-2.32,16.82-11.67,16.82-22A22.05,22.05,0,0,0,72.57,505Z" transform="translate(-26.04 -479.77)"/></svg>