<svg id="Calque_1" data-name="Calque 1" xmlns="http://www.w3.org/2000/svg" viewBox="0 0 42.53 42.53"><defs><style>.cls-1{fill:#fff;}.cls-2{fill:none;stroke:#fff;stroke-miterlimit:10;stroke-width:3px;}</style></defs><title>infos</title><path class="cls-1" d="M516.91,458.55A3.42,3.42,0,1,0,520.3,462,3.24,3.24,0,0,0,516.91,458.55Z" transform="translate(-496.07 -430.46)"/><path class="cls-1" d="M517.44,439.17a13,13,0,0,0-6.28,1.54l1.28,4.1a7.12,7.12,0,0,1,3.73-1.13c1.88,0,2.75.94,2.75,2.26s-1,2.48-2.19,4a8.16,8.16,0,0,0-2.22,5.87l0,1h5v-0.68a6.64,6.64,0,0,1,1.92-4.71c1.43-1.58,3.24-3.46,3.24-6.32C524.7,441.91,522.41,439.17,517.44,439.17Z" transform="translate(-496.07 -430.46)"/><rect class="cls-2" x="1.5" y="1.5" width="39.53" height="39.53"/></svg>