<svg id="Calque_1" data-name="Calque 1" xmlns="http://www.w3.org/2000/svg" xmlns:xlink="http://www.w3.org/1999/xlink" viewBox="0 0 92.64 92.64"><defs><style>.cls-1{stroke:#777;stroke-miterlimit:10;fill:url(#Dégradé_sans_nom_8);}.cls-2{fill:#787878;}</style><linearGradient id="Dégradé_sans_nom_8" x1="46.32" y1="0.5" x2="46.32" y2="92.14" gradientUnits="userSpaceOnUse"><stop offset="0" stop-color="#fff"/><stop offset="1" stop-color="#d9d9d9"/></linearGradient></defs><title>infos</title><rect class="cls-1" x="0.5" y="0.5" width="91.64" height="91.64"/><path class="cls-2" d="M161.81,538.18a5.17,5.17,0,1,0,5.12,5.17A4.89,4.89,0,0,0,161.81,538.18Z" transform="translate(-117.68 -479.77)"/><path class="cls-2" d="M162.6,508.9a19.69,19.69,0,0,0-9.49,2.33l1.93,6.2a10.75,10.75,0,0,1,5.63-1.71c2.84,0.06,4.15,1.42,4.15,3.41s-1.48,3.75-3.3,6c-2.56,3-3.52,6-3.35,8.87l0.06,1.48h7.56v-1a10,10,0,0,1,2.9-7.11c2.16-2.39,4.89-5.23,4.89-9.55C173.57,513.05,170.11,508.9,162.6,508.9Z" transform="translate(-117.68 -479.77)"/></svg>