<svg id="Calque_1" data-name="Calque 1" xmlns="http://www.w3.org/2000/svg" xmlns:xlink="http://www.w3.org/1999/xlink" viewBox="0 0 46.82 46.82"><defs><style>.cls-1{stroke:#777;stroke-miterlimit:10;fill:url(#Dégradé_sans_nom_8);}.cls-2{fill:#fff;}.cls-3{fill:#787878;}</style><linearGradient id="Dégradé_sans_nom_8" x1="23.41" y1="0.5" x2="23.41" y2="46.32" gradientUnits="userSpaceOnUse"><stop offset="0" stop-color="#fff"/><stop offset="1" stop-color="#d9d9d9"/></linearGradient></defs><title>left_arrow</title><rect class="cls-1" x="0.5" y="0.5" width="45.82" height="45.82"/><path class="cls-2" d="M393,451.23a1.09,1.09,0,0,1,.19-0.19h0l17.92-14a1.15,1.15,0,0,1,1.58.16,1.05,1.05,0,0,1,.25.68v6.47h15.68a1.1,1.1,0,0,1,1.12,1.08v11.86a1.1,1.1,0,0,1-1.12,1.08H413v6.47a1.1,1.1,0,0,1-1.12,1.08,1.15,1.15,0,0,1-.67-0.22l-17.92-12.94A1.05,1.05,0,0,1,393,451.23Zm17.7,11.43v-5.39a1.1,1.1,0,0,1,1.12-1.08h15.68v-9.7H411.85a1.1,1.1,0,0,1-1.12-1.08v-5.28l-15,11.72Z" transform="translate(-388.65 -427.16)"/><path class="cls-3" d="M393,449.7a1.09,1.09,0,0,1,.19-0.19h0l17.92-14a1.15,1.15,0,0,1,1.58.16,1.05,1.05,0,0,1,.25.68v6.47h15.68a1.1,1.1,0,0,1,1.12,1.08v11.86a1.1,1.1,0,0,1-1.12,1.08H412.91v6.47a1.1,1.1,0,0,1-1.12,1.08,1.15,1.15,0,0,1-.67-0.22L393.2,451.21A1.05,1.05,0,0,1,393,449.7Zm17.7,11.43v-5.39a1.1,1.1,0,0,1,1.12-1.08h15.68V445H411.79a1.1,1.1,0,0,1-1.12-1.08v-5.28l-15,11.72Z" transform="translate(-388.65 -427.16)"/></svg>