<svg id="Calque_1" data-name="Calque 1" xmlns="http://www.w3.org/2000/svg" viewBox="0 0 82.33 81.96"><defs><style>.cls-1,.cls-2,.cls-3{fill:none;stroke-miterlimit:10;}.cls-1{stroke:#787878;stroke-width:2.5px;}.cls-2,.cls-3{stroke:#44b8ea;}.cls-2{stroke-width:2px;}.cls-3{stroke-width:1.5px;}.cls-4{fill:#44b8ea;}</style></defs><title>logo_quality_accessibility</title><path class="cls-1" d="M1903.28,120.22l13.63-17.48,0,0a17.05,17.05,0,1,0-27.28,0Zm0-39.52a11.8,11.8,0,1,1-11.8,11.8A11.82,11.82,0,0,1,1903.28,80.7Z" transform="translate(-1862.12 -48.69)"/><path class="cls-2" d="M1925.37,81.06l0.31,2.69a0.23,0.23,0,0,0,.29.22h0l2.26-.7a0.36,0.36,0,0,0,.22-0.38,0.23,0.23,0,0,0-.29-0.22l-1.64.51,0.75-1.27c3.29-5.57,8.76-8.64,14-7.84l0.12-.62c-5.4-.83-11.06,2.35-14.48,8.14l-0.77,1.3-0.23-2a0.23,0.23,0,0,0-.29-0.22A0.36,0.36,0,0,0,1925.37,81.06Z" transform="translate(-1862.12 -48.69)"/><path class="cls-2" d="M1880.48,80.76l-0.38,2.71a0.25,0.25,0,0,1-.31.23h0l-2.4-.66a0.34,0.34,0,0,1-.23-0.38,0.25,0.25,0,0,1,.31-0.23l1.74,0.48-0.78-1.26c-3.42-5.54-9.19-8.53-14.75-7.63l-0.12-.62c5.77-.93,11.76,2.16,15.31,7.91l0.79,1.29,0.28-2a0.25,0.25,0,0,1,.31-0.23A0.34,0.34,0,0,1,1880.48,80.76Z" transform="translate(-1862.12 -48.69)"/><path class="cls-2" d="M1888,121.74L1887.7,119a0.23,0.23,0,0,0-.29-0.22h0l-2.26.7a0.36,0.36,0,0,0-.22.38,0.23,0.23,0,0,0,.29.22l1.64-.51-0.75,1.27c-3.29,5.57-8.76,8.64-14,7.84l-0.12.62c5.4,0.83,11.06-2.35,14.48-8.14l0.77-1.3,0.23,2a0.23,0.23,0,0,0,.29.22A0.36,0.36,0,0,0,1888,121.74Z" transform="translate(-1862.12 -48.69)"/><path class="cls-2" d="M1917.33,122.12l0.38-2.71a0.25,0.25,0,0,1,.31-0.23h0l2.4,0.66a0.34,0.34,0,0,1,.23.38,0.25,0.25,0,0,1-.31.23l-1.74-.48,0.78,1.26c3.42,5.54,9.19,8.53,14.75,7.63l0.12,0.62c-5.77.93-11.76-2.16-15.31-7.91l-0.79-1.29-0.28,2a0.25,0.25,0,0,1-.31.23A0.34,0.34,0,0,1,1917.33,122.12Z" transform="translate(-1862.12 -48.69)"/><polygon class="cls-3" points="18.37 36.37 12.97 34.1 19.14 29.96 18.37 36.37"/><polygon class="cls-3" points="26.05 68.98 26.46 74.82 19.98 71.19 26.05 68.98"/><polygon class="cls-3" points="55.19 69.17 60.48 71.67 54.15 75.54 55.19 69.17"/><polygon class="cls-3" points="62.64 36.79 62.4 30.93 68.77 34.75 62.64 36.79"/><g id="Outline"><path class="cls-4" d="M1899.64,57.26l-0.59,3.37a1.17,1.17,0,0,0,1.69,1.25l3-1.64,3,1.59a1.29,1.29,0,0,0,.54.13,1.16,1.16,0,0,0,1.14-1.37l-0.59-3.37,2.46-2.34a1.15,1.15,0,0,0-.65-2l-3.38-.48-1.51-3.07a1.15,1.15,0,0,0-2.08,0l-1.51,3.07-3.38.48a1.15,1.15,0,0,0-.65,2Zm2.51-2.66A1.15,1.15,0,0,0,1903,54l0.75-1.51,0.75,1.51a1.15,1.15,0,0,0,.87.64l1.67,0.24L1905.84,56a1.15,1.15,0,0,0-.33,1l0.29,1.66-1.49-.76a1.15,1.15,0,0,0-1.09,0l-1.49.79,0.29-1.66a1.15,1.15,0,0,0-.33-1l-1.21-1.15Z" transform="translate(-1862.12 -48.69)"/><path class="cls-4" d="M1944.4,54.47a1.15,1.15,0,0,0-.94-0.79l-3.38-.48-1.57-3.07a1.15,1.15,0,0,0-2.08,0l-1.51,3.07-3.38.48c-0.63.09-.07,0.67,0,1.3a1.15,1.15,0,0,0,.34.67l1.46,2.39-0.59,3.37a1.17,1.17,0,0,0,1.69,1.25l3-1.64,3,1.59a1.29,1.29,0,0,0,.54.13,1.16,1.16,0,0,0,1.14-1.37L1941.6,58l2.46-2.39A1.15,1.15,0,0,0,1944.4,54.47Zm-4.79,2.31a1.15,1.15,0,0,0-.33,1l0.29,1.66-1.55-.75a1.22,1.22,0,0,0-1.09,0l-1.49.79,0.29-1.66a1.15,1.15,0,0,0-.33-1l-1.21-1.15,1.67-.24a1.15,1.15,0,0,0,.87-0.64l0.75-1.54,0.75,1.51a1.15,1.15,0,0,0,.87.64l1.67,0.24Z" transform="translate(-1862.12 -48.69)"/><path class="cls-4" d="M1925.33,62.54a1.15,1.15,0,0,0,.46-1.15L1925.21,58l2.46-2.39a1.15,1.15,0,0,0-.65-2l-3.38-.48-1.51-3a1.15,1.15,0,0,0-2.08,0l-1.51,3.07-3.38.48a1.15,1.15,0,0,0-.65,2L1917,58l-0.59,3.37a1.17,1.17,0,0,0,1.69,1.25l3-1.64,3,1.59a1.29,1.29,0,0,0,.54.13A1.15,1.15,0,0,0,1925.33,62.54Zm-2.17-5.77a1.15,1.15,0,0,0-.33,1l0.29,1.66-1.49-.75a1.22,1.22,0,0,0-1.09,0l-1.49.79,0.29-1.66a1.15,1.15,0,0,0-.33-1l-1.21-1.15,1.67-.24a1.15,1.15,0,0,0,.87-0.64l0.75-1.54,0.75,1.51a1.15,1.15,0,0,0,.87.64l1.67,0.24Z" transform="translate(-1862.12 -48.69)"/><path class="cls-4" d="M1875,53.68l-3.38-.48-1.51-3.07a1.15,1.15,0,0,0-2.08,0l-1.51,3.07-3.38.48a1.15,1.15,0,0,0-.65,2l2.46,2.39-0.59,3.37a1.17,1.17,0,0,0,1.69,1.25l3-1.64,3,1.59a1.16,1.16,0,0,0,1.67-1.25L1873.17,58l2.46-2.39a1.15,1.15,0,0,0-.65-2v0Zm-3.86,3.13a1.15,1.15,0,0,0-.33,1l0.29,1.66-1.49-.79a1.22,1.22,0,0,0-1.09,0l-1.49.79,0.29-1.66a1.15,1.15,0,0,0-.33-1l-1.15-1.15,1.67-.24a1.15,1.15,0,0,0,.87-0.64l0.69-1.54,0.75,1.51a1.15,1.15,0,0,0,.87.64l1.67,0.24Z" transform="translate(-1862.12 -48.69)"/><path class="cls-4" d="M1889.48,62.63a1.16,1.16,0,0,0,1.67-1.25L1890.56,58l2.46-2.39a1.15,1.15,0,0,0-.65-2l-3.38-.48-1.51-3a1.15,1.15,0,0,0-2.08,0l-1.51,3.07-3.38.48a1.15,1.15,0,0,0-.65,2l2.46,2.39-0.59,3.37a1.17,1.17,0,0,0,1.69,1.25l3-1.64Zm-5.07-3.14,0.29-1.66a1.15,1.15,0,0,0-.33-1l-1.15-1.15,1.67-.24a1.15,1.15,0,0,0,.87-0.64l0.69-1.54,0.75,1.51a1.15,1.15,0,0,0,.87.64l1.67,0.24-1.21,1.15a1.15,1.15,0,0,0-.33,1l0.29,1.66-1.49-.76a1.22,1.22,0,0,0-1.09,0Z" transform="translate(-1862.12 -48.69)"/></g><polygon class="cls-4" points="6.96 1.98 8.66 5.48 12.16 6.66 10.22 7.68 10.22 12.81 6.96 10.81 3.7 12.81 3.7 10.03 1.44 6.66 5.33 5.48 6.96 1.98"/><polygon class="cls-4" points="24.52 1.48 26.21 4.98 29.71 6.17 27.78 7.19 27.78 12.31 24.52 10.32 21.25 12.31 21.25 9.53 19 6.17 22.88 4.98 24.52 1.48"/><polygon class="cls-4" points="41.81 1.25 43.51 4.75 47.01 5.93 45.07 6.95 45.07 12.08 41.81 10.08 38.55 12.08 38.55 9.3 36.29 5.93 40.17 4.75 41.81 1.25"/></svg>