<svg id="Calque_1" data-name="Calque 1" xmlns="http://www.w3.org/2000/svg" viewBox="0 0 124 129.59"><defs><style>.cls-1{fill:#787878;}.cls-2{fill:#44b8ea;}</style></defs><title>logo_result_MWD</title><path class="cls-1" d="M1565.51,106.56l20.22-28a2.16,2.16,0,0,0-3-3l-28,20.23A7.7,7.7,0,1,0,1565.51,106.56Z" transform="translate(-1493.28 -27.67)"/><path class="cls-1" d="M1608.26,69.92s0-.09,0-0.14-0.07-.07-0.1-0.11a58.71,58.71,0,0,0-7.7-10.39l4.64-4.64,3.05,3.05,9.16-9.16-9.16-9.16-9.16,9.16L1602,51.6l-4.64,4.64a58.65,58.65,0,0,0-10.39-7.7s-0.06-.07-0.11-0.1-0.09,0-.14,0A57.91,57.91,0,0,0,1564.55,41V38.47h3.24a5.4,5.4,0,1,0,0-10.8h-19.44a5.4,5.4,0,1,0,0,10.8h3.24V41a59.4,59.4,0,0,0-7,1.16,2.16,2.16,0,0,0,1,4.21,54.89,54.89,0,0,1,6.18-1l2.14-.16,2-.12h0v4.27a2.16,2.16,0,0,0,4.32,0V45a53.57,53.57,0,0,1,22.58,6.14l-2.13,3.69a2.16,2.16,0,1,0,3.74,2.16l2.12-3.68a54.41,54.41,0,0,1,16.79,16.79l-3.68,2.12a2.16,2.16,0,0,0,2.17,3.74l3.69-2.13a53.6,53.6,0,0,1,6.15,22.93h-4.27a2.16,2.16,0,1,0,0,4.32h4.27A53.6,53.6,0,0,1,1605.5,124l-3.69-2.13a2.16,2.16,0,1,0-2.16,3.74l3.68,2.12a54.41,54.41,0,0,1-16.79,16.79l-2.12-3.68a2.16,2.16,0,0,0-3.74,2.16l2.13,3.69a53.57,53.57,0,0,1-22.58,6.14v-4.25a2.16,2.16,0,1,0-4.32,0v4.27a54.5,54.5,0,0,1-10.31-1.33,2.16,2.16,0,1,0-1,4.21,58.36,58.36,0,0,0,13.08,1.49h0.4a57.94,57.94,0,0,0,28.55-7.72,1.83,1.83,0,0,0,.2-0.08s0.07-.07.11-0.1a58.74,58.74,0,0,0,21.11-21.08,2,2,0,0,0,.13-0.17s0-.09,0-0.14A58.09,58.09,0,0,0,1608.26,69.92Z" transform="translate(-1493.28 -27.67)"/><path class="cls-2" d="M1538.63,55.74h-10.8a4.32,4.32,0,1,0,0,8.64h10.8A4.32,4.32,0,0,0,1538.63,55.74Z" transform="translate(-1493.28 -27.67)"/><path class="cls-1" d="M1538.63,70.86H1517a4.32,4.32,0,1,0,0,8.64h21.6A4.32,4.32,0,0,0,1538.63,70.86Z" transform="translate(-1493.28 -27.67)"/><path class="cls-2" d="M1538.63,86h-32.4a4.32,4.32,0,1,0,0,8.64h32.4A4.32,4.32,0,0,0,1538.63,86Z" transform="translate(-1493.28 -27.67)"/><path class="cls-1" d="M1538.63,101.1h-41a4.32,4.32,0,1,0,0,8.64h41A4.32,4.32,0,0,0,1538.63,101.1Z" transform="translate(-1493.28 -27.67)"/><path class="cls-2" d="M1538.63,116.22h-28.08a4.32,4.32,0,1,0,0,8.64h28.08A4.32,4.32,0,0,0,1538.63,116.22Z" transform="translate(-1493.28 -27.67)"/><path class="cls-1" d="M1538.63,131.33h-15.12a4.32,4.32,0,0,0,0,8.64h15.12A4.32,4.32,0,0,0,1538.63,131.33Z" transform="translate(-1493.28 -27.67)"/></svg>