<svg id="Calque_1" data-name="Calque 1" xmlns="http://www.w3.org/2000/svg" viewBox="0 0 80.16 58.41"><defs><style>.cls-1,.cls-2,.cls-3{fill:none;stroke-miterlimit:10;}.cls-1{stroke:#787878;stroke-width:2.5px;}.cls-2,.cls-3{stroke:#44b8ea;}.cls-2{stroke-width:2px;}.cls-3{stroke-width:1.5px;}</style></defs><title>result_bassin</title><path class="cls-1" d="M1361.48,455.55l13.63-17.48,0,0a17.05,17.05,0,1,0-27.28,0Zm0-39.52a11.8,11.8,0,1,1-11.8,11.8A11.82,11.82,0,0,1,1361.48,416Z" transform="translate(-1320.59 -407.56)"/><path class="cls-2" d="M1383.58,416.38l0.31,2.69a0.23,0.23,0,0,0,.29.22h0l2.26-.7a0.36,0.36,0,0,0,.22-0.38,0.23,0.23,0,0,0-.29-0.22l-1.64.51,0.75-1.27c3.29-5.57,8.76-8.64,14-7.84l0.12-.62c-5.4-.83-11.06,2.35-14.48,8.14l-0.77,1.3-0.23-2a0.23,0.23,0,0,0-.29-0.22A0.36,0.36,0,0,0,1383.58,416.38Z" transform="translate(-1320.59 -407.56)"/><path class="cls-2" d="M1338.69,416.08l-0.38,2.71a0.25,0.25,0,0,1-.31.23h0l-2.4-.66a0.34,0.34,0,0,1-.23-0.38,0.25,0.25,0,0,1,.31-0.23l1.74,0.48-0.78-1.26c-3.42-5.54-9.19-8.53-14.75-7.63l-0.12-.62c5.77-.93,11.76,2.16,15.31,7.91l0.79,1.29,0.28-2a0.25,0.25,0,0,1,.31-0.23A0.34,0.34,0,0,1,1338.69,416.08Z" transform="translate(-1320.59 -407.56)"/><path class="cls-2" d="M1346.22,457.06l-0.31-2.69a0.23,0.23,0,0,0-.29-0.22h0l-2.26.7a0.36,0.36,0,0,0-.22.38,0.23,0.23,0,0,0,.29.22l1.64-.51-0.75,1.27c-3.29,5.57-8.76,8.64-14,7.84l-0.12.62c5.4,0.83,11.06-2.35,14.48-8.14l0.77-1.3,0.23,2a0.23,0.23,0,0,0,.29.22A0.36,0.36,0,0,0,1346.22,457.06Z" transform="translate(-1320.59 -407.56)"/><path class="cls-2" d="M1375.54,457.45l0.38-2.71a0.25,0.25,0,0,1,.31-0.23h0l2.4,0.66a0.34,0.34,0,0,1,.23.38,0.25,0.25,0,0,1-.31.23l-1.74-.48,0.78,1.26c3.42,5.54,9.19,8.53,14.75,7.63l0.12,0.62c-5.77.93-11.76-2.16-15.31-7.91l-0.79-1.29-0.28,2a0.25,0.25,0,0,1-.31.23A0.34,0.34,0,0,1,1375.54,457.45Z" transform="translate(-1320.59 -407.56)"/><polygon class="cls-3" points="18.1 12.83 12.7 10.55 18.87 6.42 18.1 12.83"/><polygon class="cls-3" points="25.78 45.44 26.19 51.28 19.71 47.65 25.78 45.44"/><polygon class="cls-3" points="54.92 45.63 60.22 48.13 53.88 52 54.92 45.63"/><polygon class="cls-3" points="62.37 13.24 62.13 7.39 68.5 11.21 62.37 13.24"/></svg>