<svg id="Calque_1" data-name="Calque 1" xmlns="http://www.w3.org/2000/svg" viewBox="0 0 51.32 73.29"><defs><style>.cls-1{fill:#078fcb;}.cls-2{fill:#fff;stroke:#787878;stroke-miterlimit:10;stroke-width:2.5px;}</style></defs><title>result_selected</title><path class="cls-1" d="M1368.4,355.55a3.38,3.38,0,0,0-3.37-3.37h-8a3.38,3.38,0,0,0-3.37,3.37v8A3.38,3.38,0,0,0,1357,367h8a3.38,3.38,0,0,0,3.37-3.37v-8h0Zm-2.58,8a0.8,0.8,0,0,1-.79.79h-8a0.8,0.8,0,0,1-.79-0.79v-8a0.8,0.8,0,0,1,.79-0.79h8a0.8,0.8,0,0,1,.79.79v8h0Z" transform="translate(-1335.4 -310.78)"/><path class="cls-1" d="M1346.82,352.16h-8a3.38,3.38,0,0,0-3.37,3.37v8a3.38,3.38,0,0,0,3.37,3.37h8a3.38,3.38,0,0,0,3.37-3.37v-8A3.37,3.37,0,0,0,1346.82,352.16Zm0.79,11.42a0.8,0.8,0,0,1-.79.79h-8a0.8,0.8,0,0,1-.79-0.79v-8a0.8,0.8,0,0,1,.79-0.79h8a0.8,0.8,0,0,1,.79.79v8h0Z" transform="translate(-1335.4 -310.78)"/><path class="cls-1" d="M1371.93,346.26a3.38,3.38,0,0,0,3.37,3.37h8a3.38,3.38,0,0,0,3.37-3.37v-8a3.38,3.38,0,0,0-3.37-3.37h-8a3.38,3.38,0,0,0-3.37,3.37v8h0Zm2.58-8a0.8,0.8,0,0,1,.79-0.79h8a0.8,0.8,0,0,1,.79.79v8a0.8,0.8,0,0,1-.79.79h-8a0.8,0.8,0,0,1-.79-0.79v-8h0Z" transform="translate(-1335.4 -310.78)"/><path class="cls-1" d="M1371.93,363.58a3.38,3.38,0,0,0,3.37,3.37h8a3.38,3.38,0,0,0,3.37-3.37v-8a3.38,3.38,0,0,0-3.37-3.37h-8a3.38,3.38,0,0,0-3.37,3.37v8h0Zm2.58-8a0.8,0.8,0,0,1,.79-0.79h8a0.8,0.8,0,0,1,.79.79v8a0.8,0.8,0,0,1-.79.79h-8a0.8,0.8,0,0,1-.79-0.79v-8h0Z" transform="translate(-1335.4 -310.78)"/><path class="cls-1" d="M1338.77,349.64h8a3.38,3.38,0,0,0,3.37-3.37v-8a3.38,3.38,0,0,0-3.37-3.37h-8a3.38,3.38,0,0,0-3.37,3.37v8A3.39,3.39,0,0,0,1338.77,349.64ZM1338,338.22a0.8,0.8,0,0,1,.79-0.79h8a0.8,0.8,0,0,1,.79.79v8a0.8,0.8,0,0,1-.79.79h-8a0.8,0.8,0,0,1-.79-0.79v-8h0Z" transform="translate(-1335.4 -310.78)"/><path class="cls-2" d="M1360.66,356.8l13.63-17.48,0,0a17.05,17.05,0,1,0-27.28,0Zm0-39.52a11.8,11.8,0,1,1-11.8,11.8A11.82,11.82,0,0,1,1360.66,317.28Z" transform="translate(-1335.4 -310.78)"/><path class="cls-1" d="M1368.4,372.66a3.38,3.38,0,0,0-3.37-3.37h-8a3.38,3.38,0,0,0-3.37,3.37v8a3.38,3.38,0,0,0,3.37,3.37h8a3.38,3.38,0,0,0,3.37-3.37v-8h0Zm-2.58,8a0.8,0.8,0,0,1-.79.79h-8a0.8,0.8,0,0,1-.79-0.79v-8a0.8,0.8,0,0,1,.79-0.79h8a0.8,0.8,0,0,1,.79.79v8h0Z" transform="translate(-1335.4 -310.78)"/></svg>