<svg id="Calque_1" data-name="Calque 1" xmlns="http://www.w3.org/2000/svg" xmlns:xlink="http://www.w3.org/1999/xlink" viewBox="0 0 46.82 46.82"><defs><style>.cls-1{stroke:#777;stroke-miterlimit:10;fill:url(#Dégradé_sans_nom_8);}.cls-2{fill:#fff;}.cls-3{fill:#787878;}</style><linearGradient id="Dégradé_sans_nom_8" x1="23.41" y1="0.5" x2="23.41" y2="46.32" gradientUnits="userSpaceOnUse"><stop offset="0" stop-color="#fff"/><stop offset="1" stop-color="#d9d9d9"/></linearGradient></defs><title>right_arrow</title><rect class="cls-1" x="0.5" y="0.5" width="45.82" height="45.82"/><path class="cls-2" d="M476.15,451.23A1.07,1.07,0,0,0,476,451h0l-17.25-14a1.08,1.08,0,0,0-1.76.84v6.47H441.86a1.08,1.08,0,0,0-1.08,1.08v11.86a1.08,1.08,0,0,0,1.08,1.08H457v6.47a1.08,1.08,0,0,0,1.73.86l17.25-12.94A1.08,1.08,0,0,0,476.15,451.23Zm-17,11.43v-5.39a1.08,1.08,0,0,0-1.08-1.08H442.94v-9.7H458a1.08,1.08,0,0,0,1.08-1.08v-5.28l14.42,11.72Z" transform="translate(-435.19 -427.16)"/><path class="cls-3" d="M476.21,449.7a1.07,1.07,0,0,0-.18-0.19h0l-17.25-14a1.08,1.08,0,0,0-1.76.84v6.47H441.92a1.08,1.08,0,0,0-1.08,1.08v11.86a1.08,1.08,0,0,0,1.08,1.08H457v6.47a1.08,1.08,0,0,0,1.73.86L476,451.21A1.08,1.08,0,0,0,476.21,449.7Zm-17,11.43v-5.39a1.08,1.08,0,0,0-1.08-1.08H443V445h15.09a1.08,1.08,0,0,0,1.08-1.08v-5.28l14.42,11.72Z" transform="translate(-435.19 -427.16)"/></svg>