<svg id="Calque_1" data-name="Calque 1" xmlns="http://www.w3.org/2000/svg" viewBox="0 0 122.23 151.55"><defs><style>.cls-1,.cls-2{fill:#787878;}.cls-1{stroke:#fff;stroke-miterlimit:10;stroke-width:4px;}.cls-3{fill:#f68b21;}</style></defs><title>service_type</title><path class="cls-1" d="M1373.09,91.36c-0.93,3.79-4.06,10.37-14.44,15.52a1.24,1.24,0,0,0,.13,2.27,17.86,17.86,0,0,0,5.6.73h0c4.25,0,10.9-1,19.44-5.41,6.7,5.69,14.23,8.3,18.84,8.3s12.14-2.6,18.84-8.3c8.54,4.42,15.19,5.41,19.44,5.41a17.86,17.86,0,0,0,5.6-.73,1.24,1.24,0,0,0,.13-2.27,33.86,33.86,0,0,1-8.89-6.16c-5.77,2.07-13.53,3.09-23.39,3.09l-2.16,0a8.45,8.45,0,0,1-5.15,1.76h-6.18a8.44,8.44,0,0,1,0-16.88h6.18a8.41,8.41,0,0,1,5.87,2.37h1.52c8,0,13.23-.73,16.67-1.61a9.22,9.22,0,0,1-.69-3.51V64.52a9.2,9.2,0,0,1,2.25-6c-0.76-5.94-2.15-10.47-4.21-13.81-4.26-6.89-12.46-10.1-25.82-10.1-11.08,0-18.74,2.3-23.4,7-3.61,3.67-5.71,8.9-6.69,16.81a9.19,9.19,0,0,1,2.31,6.07v21.4A9.14,9.14,0,0,1,1373.09,91.36Z" transform="translate(-1341.55 -23.26)"/><path class="cls-2" d="M1463.75,153.92c-1.68-10.45-5.14-23.9-12.07-28.68-4.73-3.26-21.24-12.08-28.29-15.85l-0.15-.08a2.31,2.31,0,0,0-2.51.22,30,30,0,0,1-12,5.81,2.31,2.31,0,0,0-1.66,1.43l-4.37,11.51-4.37-11.51a2.31,2.31,0,0,0-1.66-1.43,30,30,0,0,1-12-5.81,2.3,2.3,0,0,0-2.51-.22c-7,3.72-23.7,12.73-28.42,15.92-8,5.38-11.48,24.85-12.09,28.7a2.31,2.31,0,0,0,.1,1.14c0.29,0.81,7.61,19.76,61,19.76s60.7-19,61-19.76A2.3,2.3,0,0,0,1463.75,153.92Zm-21.85-.25h-32.14v-19.2h32.14v19.2Z" transform="translate(-1341.55 -23.26)"/><path class="cls-3" d="M1358.3,91h7.41a5.05,5.05,0,0,0,5.05-5.05V64.53a5,5,0,0,0-2.51-4.36c1.65-17.53,8.42-29.67,34.41-29.67,14.93,0,24.25,3.83,29.33,12.05,3,4.78,4.38,11,5,17.65a5,5,0,0,0-2.47,4.34v21.4a5.05,5.05,0,0,0,3.94,4.92c-3.27,2.14-10,4.32-24,4.32q-1.7,0-3.55,0a4.32,4.32,0,0,0-3.84-2.33h-6.18a4.32,4.32,0,1,0,0,8.65h6.18a4.31,4.31,0,0,0,3.5-1.8c1.3,0,2.57.05,3.8,0.05,15.78,0,25.82-2.69,29.88-8q0.26-.34.47-0.68H1447a5.05,5.05,0,0,0,5.05-5.05V64.53a5.05,5.05,0,0,0-5.05-5.05h-2.79c-0.78-8.07-2.52-14.95-6.1-20.73-6.44-10.42-18-15.48-35.48-15.48s-29,5.06-35.48,15.48c-3.57,5.78-5.31,12.66-6.1,20.73h-2.79a5.05,5.05,0,0,0-5.05,5.05v21.4A5.05,5.05,0,0,0,1358.3,91Z" transform="translate(-1341.55 -23.26)"/><rect class="cls-3" x="73.21" y="116.21" width="23.14" height="10.03"/></svg>